<svg width="700" height="450" viewBox="0 0 700 450" fill="none" xmlns="http://www.w3.org/2000/svg">
<path d="M525.566 17.4955V16.05L537.202 10.1237V12.4364L528.276 16.7366L528.348 16.5921V16.9534L528.276 16.8089L537.202 21.1091V23.4218L525.566 17.4955ZM548.261 4.63098L542.299 26.7825H540.348L546.31 4.63098H548.261ZM563.039 17.4955L551.403 23.4218V21.1091L560.329 16.8089L560.256 16.9534V16.5921L560.329 16.7366L551.403 12.4364V10.1237L563.039 16.05V17.4955Z" fill="#323247"/>
<path d="M439.837 165.349C438.573 193.041 445.489 289.02 423.779 296.06C419.88 297.324 383.441 295.83 379.779 296.06C373.419 296.46 340.829 297.901 335.279 296.06C313.099 288.701 327.062 191.381 324.531 165.349C321.79 137.154 331.803 137.574 339.26 125.822C348.296 111.583 365.135 103.714 382.184 103.714C414.025 103.714 441.844 121.401 439.837 165.349Z" fill="#2B2B3F"/>
<path d="M404.528 221.505H359.842V277.448H404.528V221.505Z" fill="#E3B5AA"/>
<path d="M432.379 188.875C440.35 176.779 450.492 176.249 454.727 190.554C458.962 204.86 444.985 216.632 433.604 212.288C422.224 207.944 432.379 188.875 432.379 188.875Z" fill="#E3B5AA"/>
<path d="M441.789 189.191C447.128 188.214 449.865 204.122 438.156 204.647L440.564 199.097L438.304 194.479L441.789 189.191Z" fill="#D78F97"/>
<path d="M436.404 206.828C443.229 199.553 438.304 194.479 438.304 194.479C438.304 194.479 444.8 181.155 447.404 191.367" stroke="#C87E84" stroke-width="0.5" stroke-miterlimit="10"/>
<path d="M331.617 188.875C323.646 176.779 313.504 176.249 309.269 190.554C305.034 204.86 319.011 216.632 330.392 212.288C341.772 207.944 331.617 188.875 331.617 188.875Z" fill="#E3B5AA"/>
<path d="M322.207 189.191C316.868 188.214 314.131 204.122 325.841 204.647L323.433 199.097L325.693 194.479L322.207 189.191Z" fill="#D78F97"/>
<path d="M327.592 206.828C320.766 199.553 325.692 194.479 325.692 194.479C325.692 194.479 319.196 181.155 316.592 191.367" stroke="#C87E84" stroke-width="0.5" stroke-miterlimit="10"/>
<path d="M404.528 222.742V243.553C388.47 265.313 359.842 258.238 359.842 258.238L360.343 222.741H404.528V222.742Z" fill="#C87E84"/>
<path d="M382 252.5C368.13 252.5 358.809 237.863 350 228.5C345.959 224.205 342.5 218 339 212.5C335.5 207 335 205 333.884 198.289V162.993C333.884 144.976 348.49 130.37 366.507 130.37H397.862C415.879 130.37 430.485 144.976 430.485 162.993V198.289C429 204.5 428.5 206.5 425.5 212.5C422.771 217.959 419.041 224.205 415 228.5C406.191 237.863 395.87 252.5 382 252.5Z" fill="#E3B5AA"/>
<path d="M387 204.603C387 208.707 384.753 212.034 382.185 212.034C379.616 212.034 377.5 208.707 377.5 204.603" stroke="#2B2B3F" stroke-width="0.5" stroke-miterlimit="10"/>
<path d="M375.983 191.831C378.796 181.479 372.685 170.808 362.333 167.995C351.981 165.182 341.31 171.294 338.497 181.645C335.684 191.997 341.796 202.669 352.147 205.481C362.499 208.294 373.171 202.182 375.983 191.831Z" fill="#25E3A3"/>
<rect x="363.229" y="167" width="9" height="37" transform="rotate(38.8881 363.229 167)" fill="white" fill-opacity="0.45"/>
<rect x="371.229" y="175" width="2.47331" height="37" transform="rotate(38.8881 371.229 175)" fill="white" fill-opacity="0.45"/>
<path d="M375.983 191.831C378.796 181.479 372.685 170.808 362.333 167.995C351.981 165.182 341.31 171.294 338.497 181.645C335.684 191.997 341.796 202.669 352.147 205.481C362.499 208.294 373.171 202.182 375.983 191.831Z" stroke="#2B2B3F" stroke-width="4" stroke-miterlimit="10"/>
<path d="M425.828 191.911C428.691 181.573 422.632 170.872 412.294 168.009C401.956 165.146 391.255 171.205 388.392 181.543C385.529 191.88 391.588 202.582 401.926 205.445C412.264 208.308 422.965 202.248 425.828 191.911Z" fill="#25E3A3"/>
<rect x="414.229" y="168" width="9" height="37" transform="rotate(38.8881 414.229 168)" fill="white" fill-opacity="0.45"/>
<rect x="422.229" y="176" width="2.47331" height="37" transform="rotate(38.8881 422.229 176)" fill="white" fill-opacity="0.45"/>
<path d="M425.828 191.911C428.691 181.573 422.632 170.872 412.294 168.009C401.956 165.146 391.255 171.205 388.392 181.543C385.529 191.88 391.588 202.582 401.926 205.445C412.264 208.308 422.965 202.248 425.828 191.911Z" stroke="#2B2B3F" stroke-width="4" stroke-miterlimit="10"/>
<path d="M337.279 176.059C337.279 176.059 338.329 148.544 349.779 136.56C355.301 130.781 367.463 136.411 375.08 135.68C398.492 133.433 414.382 151.844 427.169 135.077C427.169 135.077 435.738 120.734 408.447 111.357C381.156 101.98 363.181 105.725 348.279 122.56C340.305 131.568 336.725 140.261 333.779 150.06C333.779 159.06 334.477 167.308 337.279 176.059Z" fill="#2B2B3F"/>
<path d="M333.958 160.815C333.958 160.815 337.375 185.74 333.958 200.952C333.958 200.952 328.964 162.302 333.958 160.815Z" fill="#2B2B3F"/>
<path d="M430.134 160.815C430.134 160.815 426.717 185.74 430.134 200.952C430.134 200.952 435.128 162.302 430.134 160.815Z" fill="#2B2B3F"/>
<path d="M367.863 158.869C362.593 156.346 353.219 153.577 344.534 159.763C343.077 160.801 343.631 163.091 345.393 163.395C348.179 163.876 352.177 164.373 356.701 164.344C360.218 164.322 364.38 163.456 367.489 162.657C369.316 162.188 369.565 159.684 367.863 158.869Z" fill="#2B2B3F"/>
<path d="M418.759 158.869C413.489 156.346 404.115 153.577 395.43 159.763C393.974 160.801 394.527 163.091 396.289 163.395C399.075 163.876 403.073 164.373 407.597 164.344C411.114 164.322 415.276 163.456 418.385 162.657C420.212 162.188 420.46 159.684 418.759 158.869Z" fill="#2B2B3F"/>
<path d="M378 226.5H387.5" stroke="#2B2B3F" stroke-width="0.5"/>
<path d="M537.21 416.406L210.25 416.746C210.25 416.746 216.35 403.986 225.13 387.076C225.78 385.826 226.45 384.546 227.13 383.246C239.12 360.376 255.25 331.486 267.84 315.816C282.34 297.776 316.6 284.916 339.87 277.886C353.43 273.796 363.25 271.686 363.25 271.686H400.81C400.81 271.686 409.63 273.576 422.09 277.266C445.34 284.136 480.1 298.236 496.22 315.816C499.76 319.676 503.09 324.346 506.21 329.526C526.05 362.496 537.21 416.406 537.21 416.406Z" fill="#A36EE9"/>
<path opacity="0.5" d="M537.21 416.406L210.25 416.746C210.25 416.746 216.35 403.986 225.13 387.076C388.291 435.038 474.273 356.438 493.893 335.161C497.061 331.726 501.46 329.657 506.131 329.528L506.21 329.526C526.05 362.496 537.21 416.406 537.21 416.406Z" fill="#6E07F3"/>
<path d="M377.054 190.031H387.313" stroke="#2B2B3F" stroke-width="4" stroke-miterlimit="10"/>
<path d="M422.089 277.262C381.616 321.793 339.87 277.891 339.87 277.891C353.431 273.793 363.253 271.682 363.253 271.682H400.811C400.811 271.682 409.631 273.578 422.089 277.262Z" fill="#E3B5AA"/>
<path d="M292.82 366.023V416.807" stroke="#DC831E" stroke-width="3" stroke-miterlimit="10"/>
<path d="M292.821 398.391L279.185 381.006" stroke="#DC831E" stroke-width="3" stroke-miterlimit="10"/>
<path d="M470.623 366.023V416.807" stroke="#5906C6" stroke-width="3" stroke-miterlimit="10"/>
<path d="M470.623 398.392L482.73 382.955" stroke="#5906C6" stroke-width="3" stroke-miterlimit="10"/>
<path d="M337.932 297.218C337.932 297.218 388.116 331.49 422.089 295.554" stroke="#5906C6" stroke-width="3" stroke-miterlimit="10"/>
<path d="M433.325 336.787V334.287H450.779V336.787H443.461V357.56H440.643V336.787H433.325Z" fill="white"/>
<path d="M326.382 151.373C322.675 128.586 345.065 108.28 371.279 103.112C375.055 102.367 379.279 102.119 382.279 104.56C384.279 102.119 390.139 102.026 393.779 102.619C408.072 104.947 421.664 112.669 431.102 127.747C436.207 135.904 437.063 139.717 439.279 152.56C439.279 161.456 432.924 176.56 431.102 165.06C429.279 153.56 422.119 146.889 416.279 144.56C392.644 135.135 356.286 132.24 340.303 152.56C338.201 155.232 334.621 159.512 331.436 158.321C328.511 157.227 326.884 154.456 326.382 151.373Z" fill="#2B2B3F"/>
<path d="M352.139 253.215C352.139 253.215 349.219 254.562 347.516 267.118C346.473 274.809 347.95 283.043 349.535 286.95C350.725 289.88 353.852 296.37 358.704 301.745C371.105 315.483 370.148 307.678 366.42 296.392C363.341 287.069 360.321 284.741 359.709 269.766C359.168 256.494 356.534 251.431 352.139 253.215Z" fill="#2B2B3F"/>
<path d="M411.612 252.215C411.612 252.215 414.532 253.562 416.235 266.118C417.278 273.809 415.801 282.043 414.215 285.95C413.026 288.88 409.899 295.37 405.047 300.745C392.646 314.483 393.603 306.678 397.331 295.392C400.41 286.069 403.43 283.741 404.042 268.766C404.583 255.494 407.217 250.431 411.612 252.215Z" fill="#2B2B3F"/>
<path d="M400.71 416.436C400.68 416.446 400.64 416.456 400.6 416.456C400.33 416.486 400.05 416.496 399.77 416.496H180.78C177.87 416.496 175.28 415.146 173.59 413.026C172.33 411.456 171.58 409.456 171.58 407.286L171.55 407.186L137.45 310.836C134.84 303.476 140.3 295.746 148.11 295.746H290.29C295.09 295.746 299.36 298.766 300.96 303.286L337.71 407.106C337.75 407.226 337.77 407.286 337.77 407.286H399.98C405.69 407.287 406.32 415.827 400.71 416.436Z" fill="#25E3A3"/>
<path d="M237.49 354.318C241.085 364.772 237.02 375.648 228.409 378.609C219.799 381.57 209.904 375.496 206.309 365.041C202.714 354.587 206.779 343.711 215.39 340.75C224 337.789 233.895 343.863 237.49 354.318Z" fill="#2B2B3F"/>
<path d="M207.923 361.191C207.738 361.108 207.572 360.988 207.434 360.838C207.297 360.689 207.191 360.513 207.124 360.321C206.959 359.91 206.959 359.452 207.124 359.041C207.213 358.815 207.348 358.61 207.52 358.438C207.692 358.266 207.897 358.131 208.124 358.041L215.613 355.041C215.863 354.931 216.124 355.041 216.404 355.371C216.652 355.649 216.803 356 216.833 356.371C216.84 356.55 216.795 356.726 216.705 356.88C216.615 357.035 216.482 357.16 216.324 357.241L210.043 359.681L216.344 362.211C216.476 362.3 216.582 362.423 216.651 362.568C216.72 362.712 216.748 362.872 216.733 363.031C216.721 363.394 216.595 363.744 216.374 364.031C216.134 364.351 215.893 364.461 215.643 364.361L207.923 361.191Z" fill="white"/>
<path d="M219.611 367.1C219.508 367.018 219.425 366.913 219.37 366.793C219.314 366.673 219.287 366.542 219.291 366.41C219.336 366.05 219.416 365.695 219.531 365.35L223.691 353.35C223.951 352.45 224.321 352 224.801 352C225.065 351.996 225.321 352.088 225.521 352.26C225.619 352.358 225.695 352.476 225.745 352.605C225.795 352.734 225.818 352.872 225.811 353.01C225.786 353.353 225.708 353.69 225.581 354.01L221.231 366.71C221.183 366.912 221.065 367.09 220.899 367.214C220.733 367.338 220.529 367.401 220.321 367.39C220.058 367.382 219.806 367.279 219.611 367.1V367.1Z" fill="white"/>
<path d="M227.783 364.031C227.561 363.744 227.435 363.394 227.423 363.031C227.408 362.872 227.437 362.712 227.505 362.568C227.574 362.423 227.68 362.3 227.813 362.211L234.113 359.681L227.833 357.241C227.674 357.16 227.542 357.034 227.451 356.88C227.361 356.726 227.316 356.55 227.323 356.371C227.353 356 227.504 355.649 227.753 355.371C228.033 355.041 228.293 354.931 228.543 355.041L236.033 358.041C236.394 358.184 236.701 358.436 236.913 358.761C237.103 359.038 237.205 359.366 237.203 359.701C237.191 360.015 237.101 360.32 236.943 360.591C236.796 360.859 236.564 361.07 236.283 361.191L228.513 364.421C228.263 364.461 228.023 364.351 227.783 364.031Z" fill="white"/>
<path d="M399.982 407.285H337.769C337.769 407.285 337.751 407.222 337.715 407.105L300.959 303.284C299.357 298.765 295.09 295.749 290.292 295.749H285.539C285.539 295.749 296.161 296.442 298.817 305.948C301.473 315.445 337.769 416.295 337.769 416.295L340.452 416.493H399.767C400.055 416.493 400.334 416.484 400.604 416.457C406.328 415.936 405.725 407.285 399.982 407.285Z" fill="#005036"/>
<path opacity="0.4" d="M400.71 416.436C400.68 416.446 400.64 416.456 400.6 416.456C400.33 416.486 400.05 416.496 399.77 416.496H180.78C177.87 416.496 175.28 415.146 173.59 413.026C303.03 424.146 290.29 295.746 290.29 295.746C295.09 295.746 299.36 298.766 300.96 303.286L337.71 407.106C337.75 407.226 337.77 407.286 337.77 407.286H399C399.66 410.317 400.24 413.366 400.71 416.436Z" fill="#0D7C57"/>
<path d="M140.312 352.891V356.114C134.486 356.78 133.061 361.708 133.061 367.704V369.687C133.061 375.684 134.487 380.611 140.312 381.277V384.484H28.9224C24.3514 384.484 20.6484 380.781 20.6484 376.21V361.18C20.6484 356.609 24.3514 352.89 28.9224 352.89H140.312V352.891Z" fill="#6E07F3"/>
<path d="M138.577 377.977C139.243 379.558 138.019 381.277 136.315 381.277L29.8682 381.354V356.036L136.315 356.113C136.935 356.113 137.493 356.345 137.911 356.717C138.655 357.337 138.995 358.406 138.577 359.413C137.694 361.52 137.725 364.449 137.725 367.702V369.685C137.724 372.941 137.693 375.87 138.577 377.977Z" fill="white"/>
<path opacity="0.4" d="M137.91 356.719C135.865 356.827 41.7982 361.693 35.3522 370.834C33.6012 373.313 31.6182 374.692 29.8672 374.971V356.037L136.314 356.114C136.934 356.114 137.492 356.347 137.91 356.719Z" fill="#A3D5E6"/>
<path d="M35.3524 384.491H25.9924C23.0414 384.491 20.6484 382.099 20.6484 379.147V358.242C20.6484 355.291 23.0404 352.898 25.9924 352.898H35.3524V384.491Z" fill="#6E07F3"/>
<path opacity="0.4" d="M138.577 377.977C139.243 379.557 138.019 381.277 136.315 381.277L115.065 381.293C131.946 379.373 130.891 365.504 130.891 365.504C131.077 364.838 117.551 356.703 117.784 356.099L136.315 356.115C136.935 356.115 137.493 356.347 137.911 356.719C138.655 357.339 138.995 358.408 138.577 359.415C137.694 361.522 137.725 364.451 137.725 367.705V369.688C137.724 372.941 137.693 375.87 138.577 377.977Z" fill="#A3D5E6"/>
<path opacity="0.4" d="M137.724 366.848H35.5332V369.13H137.724V366.848Z" fill="#A3D5E6"/>
<path opacity="0.4" d="M137.724 361.709H35.5332V363.991H137.724V361.709Z" fill="#A3D5E6"/>
<path opacity="0.4" d="M137.724 373.385H35.5332V375.667H137.724V373.385Z" fill="#A3D5E6"/>
<path d="M104.808 376.628L99.3754 371.209L93.9414 376.628V361.709H104.808V376.628Z" fill="#C33E5D"/>
<path d="M152.227 384.377V387.6C146.401 388.266 144.976 393.193 144.976 399.19V401.173C144.976 407.169 146.402 412.097 152.227 412.763V415.97H40.8375C36.2665 415.97 32.5635 412.267 32.5635 407.696V392.666C32.5635 388.095 36.2665 384.377 40.8375 384.377H152.227Z" fill="#C33E5D"/>
<path d="M150.491 409.463C151.157 411.043 149.933 412.763 148.229 412.763L41.7822 412.84V387.522L148.229 387.6C148.849 387.6 149.407 387.832 149.825 388.204C150.569 388.824 150.91 389.893 150.491 390.9C149.608 393.007 149.639 395.936 149.639 399.189V401.172C149.639 404.427 149.608 407.356 150.491 409.463Z" fill="white"/>
<path opacity="0.4" d="M149.825 388.205C147.78 388.313 53.7132 393.179 47.2672 402.321C45.5162 404.8 43.5332 406.179 41.7822 406.458V387.524L148.229 387.602C148.849 387.6 149.407 387.833 149.825 388.205Z" fill="#A3D5E6"/>
<path d="M47.2675 415.977H37.9075C34.9565 415.977 32.5635 413.585 32.5635 410.633V389.728C32.5635 386.777 34.9555 384.384 37.9075 384.384H47.2675V415.977Z" fill="#C33E5D"/>
<path opacity="0.4" d="M150.492 409.463C151.158 411.044 149.933 412.763 148.229 412.763L126.979 412.779C143.86 410.859 142.805 396.99 142.805 396.99C142.991 396.324 129.466 388.189 129.699 387.585L148.229 387.601C148.849 387.601 149.408 387.833 149.826 388.205C150.569 388.825 150.911 389.894 150.492 390.901C149.609 393.008 149.639 395.937 149.639 399.19V401.173C149.639 404.427 149.609 407.356 150.492 409.463Z" fill="#A3D5E6"/>
<path opacity="0.4" d="M149.639 398.334H47.4482V400.616H149.639V398.334Z" fill="#A3D5E6"/>
<path opacity="0.4" d="M149.639 393.195H47.4482V395.477H149.639V393.195Z" fill="#A3D5E6"/>
<path opacity="0.4" d="M149.639 404.871H47.4482V407.153H149.639V404.871Z" fill="#A3D5E6"/>
<path d="M138.462 410.099L132.72 404.373L126.979 410.099V394.336H138.462V410.099Z" fill="#C33E5D"/>
<path d="M691.63 428.697V431.007C691.63 438.067 685.9 443.787 678.84 443.787H24.7998C18.8498 443.787 13.8498 439.727 12.4198 434.237C12.4198 434.227 12.4198 434.217 12.4098 434.207C12.1498 433.177 12.0098 432.107 12.0098 431.007V428.697C12.0098 421.637 17.7298 415.917 24.7998 415.917H678.84C685.9 415.917 691.63 421.637 691.63 428.697Z" fill="#47547C"/>
<path opacity="0.5" d="M691.63 428.697V431.007C691.63 438.067 685.9 443.787 678.84 443.787H24.7998C18.8498 443.787 13.8498 439.727 12.4198 434.237C12.4198 434.227 12.4198 434.217 12.4098 434.207C12.1398 432.157 12.0098 431.007 12.0098 431.007C378.764 443.787 678.84 415.917 678.84 415.917C685.9 415.917 691.63 421.637 691.63 428.697Z" fill="#2B2B3F"/>
<path d="M675.319 79.291C675.319 79.208 675.33 79.135 675.33 79.052C675.33 78.969 675.319 78.896 675.319 78.823C676.516 78.272 677.723 77.637 678.91 76.867C680.179 75.993 681.47 74.983 682.667 73.828L682.407 72.808C682.157 71.653 681.71 70.539 681.304 69.426C681.075 68.885 680.804 68.354 680.544 67.823C680.305 67.271 680.013 66.761 679.691 66.262L679.15 65.367C677.516 65.377 675.861 65.586 674.352 65.866C672.989 66.147 671.667 66.553 670.439 67.021L670.106 66.688C670.564 65.449 670.98 64.138 671.251 62.775C671.542 61.266 671.75 59.611 671.761 57.977L670.866 57.436C670.366 57.113 669.846 56.822 669.305 56.583C668.774 56.323 668.243 56.052 667.692 55.823C666.579 55.417 665.475 54.97 664.32 54.72L663.3 54.46C662.145 55.657 661.135 56.937 660.261 58.217C659.491 59.393 658.856 60.6 658.305 61.807C658.232 61.807 658.149 61.786 658.076 61.786C657.993 61.786 657.919 61.807 657.837 61.807C657.296 60.6 656.65 59.393 655.88 58.217C655.017 56.937 653.997 55.657 652.852 54.46L651.832 54.72C650.666 54.97 649.563 55.417 648.45 55.823C647.909 56.052 647.378 56.323 646.837 56.583C646.296 56.822 645.786 57.114 645.276 57.436L644.381 57.977C644.402 59.611 644.61 61.266 644.891 62.775C645.172 64.138 645.578 65.449 646.046 66.688C645.932 66.802 645.817 66.906 645.713 67.021C644.474 66.553 643.163 66.147 641.8 65.866C640.291 65.585 638.626 65.377 637.002 65.367L636.45 66.262C636.138 66.762 635.846 67.272 635.597 67.823C635.347 68.354 635.077 68.884 634.847 69.426C634.431 70.54 633.994 71.653 633.744 72.808L633.484 73.828C634.681 74.983 635.961 75.993 637.241 76.867C638.417 77.637 639.624 78.272 640.821 78.823C640.821 78.896 640.811 78.969 640.811 79.052C640.811 79.135 640.821 79.208 640.821 79.291C639.624 79.832 638.417 80.478 637.241 81.248C635.961 82.112 634.681 83.131 633.484 84.276L633.744 85.296C633.994 86.451 634.431 87.565 634.847 88.678C635.076 89.219 635.347 89.75 635.597 90.291C635.847 90.832 636.138 91.342 636.45 91.842L637.002 92.737C638.626 92.727 640.291 92.518 641.8 92.237C643.163 91.956 644.474 91.55 645.713 91.082C645.817 91.196 645.932 91.311 646.046 91.415C645.578 92.653 645.171 93.965 644.891 95.328C644.61 96.837 644.402 98.502 644.381 100.126L645.276 100.677C645.786 100.989 646.296 101.281 646.837 101.52C647.378 101.78 647.909 102.051 648.45 102.28C649.563 102.696 650.667 103.133 651.832 103.383L652.852 103.643C653.997 102.446 655.017 101.166 655.88 99.886C656.651 98.71 657.296 97.503 657.837 96.296C657.92 96.306 657.993 96.317 658.076 96.317C658.149 96.317 658.232 96.307 658.305 96.296C658.857 97.503 659.492 98.711 660.261 99.886C661.136 101.166 662.145 102.446 663.3 103.643L664.32 103.383C665.475 103.133 666.578 102.696 667.692 102.28C668.244 102.051 668.774 101.78 669.305 101.52C669.846 101.281 670.367 100.989 670.866 100.677L671.761 100.126C671.75 98.502 671.542 96.837 671.251 95.328C670.98 93.965 670.564 92.653 670.106 91.415C670.22 91.311 670.325 91.196 670.439 91.082C671.667 91.55 672.989 91.956 674.352 92.237C675.861 92.518 677.516 92.726 679.15 92.737L679.691 91.842C680.014 91.342 680.305 90.833 680.544 90.291C680.804 89.75 681.075 89.219 681.304 88.678C681.71 87.565 682.157 86.451 682.407 85.296L682.667 84.276C681.47 83.131 680.18 82.111 678.91 81.248C677.723 80.477 676.516 79.832 675.319 79.291ZM658.074 87.304C653.516 87.304 649.821 83.609 649.821 79.051C649.821 74.493 653.516 70.798 658.074 70.798C662.632 70.798 666.326 74.493 666.326 79.051C666.327 83.61 662.632 87.304 658.074 87.304Z" fill="#5BE9B9"/>
<path d="M634.417 91.7891H578.73V146.631H594.193" stroke="#0C8D62" stroke-miterlimit="10" stroke-dasharray="4 4"/>
<path d="M626.134 175.984H595.519V181.455H626.134V175.984Z" fill="#5906C6"/>
<path d="M642.586 186.107H595.519V191.579H642.586V186.107Z" fill="#5906C6"/>
<path d="M611.55 196.23H595.519V201.702H611.55V196.23Z" fill="#5906C6"/>
<path d="M634.124 196.23H618.093V201.702H634.124V196.23Z" fill="#5BE9B9"/>
<path d="M662.88 196.23H639.859V201.702H662.88V196.23Z" fill="#5BE9B9"/>
<path d="M662.88 186.107H648.901V191.579H662.88V186.107Z" fill="#5BE9B9"/>
<path d="M662.881 175.984H632.266V181.455H662.881V175.984Z" fill="#5BE9B9"/>
<path d="M674.095 140.551H673.074V201.535H674.095V140.551Z" fill="#2B2B3F"/>
<path d="M627.474 142.792H595.993V148.418H627.474V142.792Z" fill="#5906C6"/>
<path d="M644.393 153.201H595.993V158.828H644.393V153.201Z" fill="#5906C6"/>
<path d="M612.478 163.61H595.993V169.236H612.478V163.61Z" fill="#5906C6"/>
<path d="M635.691 163.61H619.206V169.236H635.691V163.61Z" fill="#5BE9B9"/>
<path d="M665.262 163.61H641.59V169.236H665.262V163.61Z" fill="#5BE9B9"/>
<path d="M665.262 153.201H650.887V158.828H665.262V153.201Z" fill="#5BE9B9"/>
<path d="M665.261 142.792H633.78V148.418H665.261V142.792Z" fill="#5BE9B9"/>
<path d="M556.484 37.9312H465.893V215.951H556.484V37.9312Z" fill="#6E07F3"/>
<path d="M544.229 75.793H476.213V83.017H544.229V75.793Z" fill="white"/>
<path d="M521.229 91.7891H476.213V99.0131H521.229V91.7891Z" fill="white"/>
<path d="M544.228 91.7891H527.914V99.0131H544.228V91.7891Z" fill="#5BE9B9"/>
<path d="M544.229 107.785H502.08V115.009H544.229V107.785Z" fill="#5BE9B9"/>
<path d="M495.953 107.785H476.213V115.009H495.953V107.785Z" fill="white"/>
<path d="M512.165 123.781H476.213V131.005H512.165V123.781Z" fill="white"/>
<path d="M544.227 123.781H517.701V131.005H544.227V123.781Z" fill="#5BE9B9"/>
<path d="M544.227 139.777H495.951V147.001H544.227V139.777Z" fill="#5BE9B9"/>
<path d="M490.806 139.777H476.213V147.001H490.806V139.777Z" fill="white"/>
<path d="M505.399 155.773H476.213V162.997H505.399V155.773Z" fill="white"/>
<path d="M544.229 155.773H510.221V162.997H544.229V155.773Z" fill="#5BE9B9"/>
<path d="M542.219 198.404V200.437L534.774 203.268V201.313L539.982 199.42L534.774 197.512V195.573L542.219 198.404Z" fill="white"/>
<path d="M521.054 195.573V197.512L515.846 199.42L521.054 201.313V203.268L513.61 200.437V198.404L521.054 195.573Z" fill="white"/>
<path d="M529.854 190.093H532.183L526.654 205.875H524.326L529.854 190.093Z" fill="white"/>
<path d="M508.037 59.4751V62.1401L498.281 65.8501V63.2881L505.106 60.8081L498.281 58.3081V55.7661L508.037 59.4751Z" fill="white"/>
<path d="M490.097 55.7651V58.3071L483.272 60.8071L490.097 63.2871V65.8491L480.341 62.1391V59.4741L490.097 55.7651Z" fill="white"/>
<path d="M468.102 23V9.59876H469.725V15.5665H476.871V9.59876H478.493V23H476.871V17.0061H469.725V23H468.102ZM481.009 11.0383V9.59876H491.06V11.0383H486.846V23H485.224V11.0383H481.009ZM493.565 9.59876H495.502L500.056 20.7228H500.213L504.768 9.59876H506.704V23H505.186V12.8182H505.055L500.868 23H499.402L495.214 12.8182H495.083V23H493.565V9.59876ZM509.958 23V9.59876H511.581V21.5604H517.811V23H509.958Z" fill="#2B2B3F"/>
<path d="M46.697 220.306C44.816 218.462 42.645 216.971 40.29 215.888C40.248 215.865 40.205 215.846 40.161 215.828C36.842 214.324 33.178 213.612 29.478 213.816C26.947 213.95 24.401 214.52 21.941 215.553C21.789 215.618 21.634 215.684 21.483 215.751C17.072 217.718 13.592 220.926 11.276 224.785C7.57201 230.94 6.83001 238.747 9.97301 245.793C15.082 257.248 28.56 262.412 40.015 257.303C50.516 252.62 55.729 240.906 52.591 230.164C52.307 229.185 51.951 228.215 51.525 227.261C50.33 224.581 48.678 222.245 46.697 220.306ZM37.177 250.941C29.229 254.486 19.88 250.903 16.335 242.956C14.227 238.229 14.641 233.007 16.995 228.807C17.011 228.778 17.028 228.745 17.047 228.711C18.652 225.888 21.134 223.535 24.32 222.114C24.917 221.848 25.524 221.622 26.135 221.438C26.198 221.416 26.263 221.397 26.327 221.378C29.484 220.453 32.758 220.569 35.736 221.565C35.749 221.566 35.76 221.57 35.772 221.574C38.323 222.432 40.65 223.937 42.49 225.983C43.565 227.175 44.474 228.556 45.162 230.099C45.59 231.059 45.912 232.037 46.136 233.024C47.778 240.219 44.165 247.824 37.177 250.941Z" fill="#5906C6"/>
<path d="M40.2903 215.888C42.6453 216.97 44.8163 218.462 46.6973 220.306C48.6773 222.245 50.3303 224.582 51.5253 227.262C51.9513 228.216 52.3073 229.186 52.5913 230.165L46.1373 233.024C45.9133 232.037 45.5913 231.059 45.1633 230.099C44.4753 228.556 43.5673 227.175 42.4913 225.983C40.6513 223.937 38.3233 222.432 35.7733 221.574L35.7373 221.565L40.1613 215.829" fill="#5BE9B9"/>
<path d="M35.7734 221.573L35.7374 221.564C32.7604 220.568 29.4854 220.452 26.3284 221.377C26.2644 221.396 26.1994 221.416 26.1364 221.437L21.9424 215.553C24.4024 214.519 26.9484 213.95 29.4794 213.816C33.1804 213.612 36.8444 214.323 40.1624 215.828" fill="#B83D5D"/>
<path d="M32.5635 259.275V261.275" stroke="#0C8D62" stroke-miterlimit="10"/>
<path d="M32.5635 265.103V293.809" stroke="#0C8D62" stroke-miterlimit="10" stroke-dasharray="3.83 3.83"/>
<path d="M32.5635 295.723V297.723H34.5635" stroke="#0C8D62" stroke-miterlimit="10"/>
<path d="M38.6797 297.723H94.2397" stroke="#0C8D62" stroke-miterlimit="10" stroke-dasharray="4.12 4.12"/>
<path d="M96.2979 297.723H98.2979V295.723" stroke="#0C8D62" stroke-miterlimit="10"/>
<path d="M98.2979 291.827V262.616" stroke="#0C8D62" stroke-miterlimit="10" stroke-dasharray="3.89 3.89"/>
<path d="M98.2979 260.669V258.669" stroke="#0C8D62" stroke-miterlimit="10"/>
<path d="M267.155 26.8574H74.3066V256.775H267.155V26.8574Z" fill="#6E07F3"/>
<path d="M267.155 15.5601H74.3066V44.7411H267.155V15.5601Z" fill="#A36EE9"/>
<path d="M244.838 240.96V242.854L237.903 245.491V243.67L242.755 241.907L237.903 240.13V238.323L244.838 240.96Z" fill="white"/>
<path d="M225.122 238.323V240.13L220.27 241.907L225.122 243.67V245.491L218.187 242.854V240.96L225.122 238.323Z" fill="white"/>
<path d="M233.896 233.862L230.237 247.455H229.039L232.698 233.862H233.896Z" fill="white"/>
<path d="M120.004 63.4413V65.8033L111.356 69.0913V66.8203L117.406 64.6223L111.356 62.4063V60.1533L120.004 63.4413Z" fill="white"/>
<path d="M104.101 60.1523V62.4053L98.0511 64.6213L104.101 66.8193V69.0903L95.4531 65.8023V63.4403L104.101 60.1523Z" fill="white"/>
<path d="M87.0646 34.5601V25.8328H92.2976V26.7703H88.1214V29.7191H91.9055V30.6566H88.1214V34.5601H87.0646ZM94.1076 34.5601V25.8328H97.0565C97.7383 25.8328 98.2979 25.9493 98.7354 26.1822C99.1729 26.4123 99.4968 26.7291 99.707 27.1325C99.9173 27.5359 100.022 27.9947 100.022 28.5089C100.022 29.0231 99.9173 29.4791 99.707 29.8768C99.4968 30.2745 99.1744 30.587 98.7397 30.8143C98.305 31.0388 97.7496 31.151 97.0735 31.151H94.6871V30.1964H97.0394C97.5053 30.1964 97.8803 30.1282 98.1644 29.9919C98.4513 29.8555 98.6587 29.6623 98.7866 29.4123C98.9173 29.1595 98.9826 28.8584 98.9826 28.5089C98.9826 28.1595 98.9173 27.8541 98.7866 27.5927C98.6559 27.3314 98.4471 27.1297 98.1602 26.9876C97.8732 26.8427 97.494 26.7703 97.0224 26.7703H95.1644V34.5601H94.1076ZM98.2156 30.6396L100.363 34.5601H99.136L97.0224 30.6396H98.2156ZM109.147 30.1964C109.147 31.1169 108.981 31.9123 108.648 32.5828C108.316 33.2532 107.86 33.7703 107.281 34.1339C106.701 34.4976 106.039 34.6794 105.295 34.6794C104.55 34.6794 103.888 34.4976 103.309 34.1339C102.729 33.7703 102.273 33.2532 101.941 32.5828C101.609 31.9123 101.442 31.1169 101.442 30.1964C101.442 29.276 101.609 28.4805 101.941 27.8101C102.273 27.1396 102.729 26.6226 103.309 26.2589C103.888 25.8953 104.55 25.7135 105.295 25.7135C106.039 25.7135 106.701 25.8953 107.281 26.2589C107.86 26.6226 108.316 27.1396 108.648 27.8101C108.981 28.4805 109.147 29.276 109.147 30.1964ZM108.124 30.1964C108.124 29.4407 107.998 28.803 107.745 28.2831C107.495 27.7632 107.156 27.3697 106.727 27.1027C106.3 26.8356 105.823 26.7021 105.295 26.7021C104.766 26.7021 104.288 26.8356 103.859 27.1027C103.433 27.3697 103.093 27.7632 102.84 28.2831C102.59 28.803 102.465 29.4407 102.465 30.1964C102.465 30.9521 102.59 31.5899 102.84 32.1098C103.093 32.6297 103.433 33.0231 103.859 33.2902C104.288 33.5572 104.766 33.6907 105.295 33.6907C105.823 33.6907 106.3 33.5572 106.727 33.2902C107.156 33.0231 107.495 32.6297 107.745 32.1098C107.998 31.5899 108.124 30.9521 108.124 30.1964ZM117.844 25.8328V34.5601H116.822L112.066 27.7078H111.981V34.5601H110.924V25.8328H111.947L116.719 32.7021H116.805V25.8328H117.844ZM119.482 26.7703V25.8328H126.027V26.7703H123.283V34.5601H122.226V26.7703H119.482ZM127.658 34.5601V25.8328H132.925V26.7703H128.715V29.7191H132.653V30.6566H128.715V33.6226H132.994V34.5601H127.658ZM141.751 25.8328V34.5601H140.728L135.972 27.7078H135.887V34.5601H134.83V25.8328H135.853L140.626 32.7021H140.711V25.8328H141.751ZM146.559 34.5601H143.865V25.8328H146.678C147.525 25.8328 148.249 26.0075 148.851 26.3569C149.453 26.7035 149.915 27.2021 150.236 27.8527C150.557 28.5004 150.718 29.276 150.718 30.1794C150.718 31.0885 150.556 31.8711 150.232 32.5274C149.908 33.1808 149.436 33.6836 148.817 34.0359C148.198 34.3853 147.445 34.5601 146.559 34.5601ZM144.922 33.6226H146.49C147.212 33.6226 147.81 33.4834 148.284 33.2049C148.759 32.9265 149.113 32.5302 149.346 32.016C149.578 31.5018 149.695 30.8896 149.695 30.1794C149.695 29.4748 149.58 28.8683 149.35 28.3598C149.12 27.8484 148.776 27.4564 148.319 27.1836C147.861 26.9081 147.292 26.7703 146.61 26.7703H144.922V33.6226ZM158.559 34.5601H155.865V25.8328H158.678C159.525 25.8328 160.249 26.0075 160.851 26.3569C161.453 26.7035 161.915 27.2021 162.236 27.8527C162.557 28.5004 162.718 29.276 162.718 30.1794C162.718 31.0885 162.556 31.8711 162.232 32.5274C161.908 33.1808 161.436 33.6836 160.817 34.0359C160.198 34.3853 159.445 34.5601 158.559 34.5601ZM156.922 33.6226H158.49C159.212 33.6226 159.81 33.4834 160.284 33.2049C160.759 32.9265 161.113 32.5302 161.346 32.016C161.578 31.5018 161.695 30.8896 161.695 30.1794C161.695 29.4748 161.58 28.8683 161.35 28.3598C161.12 27.8484 160.776 27.4564 160.319 27.1836C159.861 26.9081 159.292 26.7703 158.61 26.7703H156.922V33.6226ZM164.49 34.5601V25.8328H169.757V26.7703H165.547V29.7191H169.485V30.6566H165.547V33.6226H169.826V34.5601H164.49ZM172.02 25.8328L174.611 33.1794H174.713L177.304 25.8328H178.412L175.208 34.5601H174.117L170.912 25.8328H172.02ZM179.772 34.5601V25.8328H185.039V26.7703H180.828V29.7191H184.766V30.6566H180.828V33.6226H185.107V34.5601H179.772ZM186.944 34.5601V25.8328H188V33.6226H192.057V34.5601H186.944ZM200.717 30.1964C200.717 31.1169 200.551 31.9123 200.219 32.5828C199.886 33.2532 199.43 33.7703 198.851 34.1339C198.271 34.4976 197.609 34.6794 196.865 34.6794C196.121 34.6794 195.459 34.4976 194.879 34.1339C194.3 33.7703 193.844 33.2532 193.511 32.5828C193.179 31.9123 193.013 31.1169 193.013 30.1964C193.013 29.276 193.179 28.4805 193.511 27.8101C193.844 27.1396 194.3 26.6226 194.879 26.2589C195.459 25.8953 196.121 25.7135 196.865 25.7135C197.609 25.7135 198.271 25.8953 198.851 26.2589C199.43 26.6226 199.886 27.1396 200.219 27.8101C200.551 28.4805 200.717 29.276 200.717 30.1964ZM199.695 30.1964C199.695 29.4407 199.568 28.803 199.315 28.2831C199.065 27.7632 198.726 27.3697 198.297 27.1027C197.871 26.8356 197.393 26.7021 196.865 26.7021C196.337 26.7021 195.858 26.8356 195.429 27.1027C195.003 27.3697 194.663 27.7632 194.411 28.2831C194.161 28.803 194.036 29.4407 194.036 30.1964C194.036 30.9521 194.161 31.5899 194.411 32.1098C194.663 32.6297 195.003 33.0231 195.429 33.2902C195.858 33.5572 196.337 33.6907 196.865 33.6907C197.393 33.6907 197.871 33.5572 198.297 33.2902C198.726 33.0231 199.065 32.6297 199.315 32.1098C199.568 31.5899 199.695 30.9521 199.695 30.1964ZM202.494 34.5601V25.8328H205.443C206.128 25.8328 206.688 25.9564 207.122 26.2035C207.56 26.4478 207.884 26.7788 208.094 27.1964C208.304 27.614 208.409 28.0799 208.409 28.5941C208.409 29.1084 208.304 29.5757 208.094 29.9961C207.886 30.4166 207.565 30.7518 207.131 31.0018C206.696 31.249 206.139 31.3726 205.46 31.3726H203.347V30.4351H205.426C205.895 30.4351 206.271 30.3541 206.555 30.1922C206.839 30.0302 207.045 29.8115 207.173 29.5359C207.304 29.2575 207.369 28.9436 207.369 28.5941C207.369 28.2447 207.304 27.9322 207.173 27.6566C207.045 27.3811 206.838 27.1652 206.551 27.0089C206.264 26.8498 205.884 26.7703 205.409 26.7703H203.551V34.5601H202.494ZM210.112 34.5601V25.8328H215.379V26.7703H211.168V29.7191H215.106V30.6566H211.168V33.6226H215.447V34.5601H210.112ZM217.283 34.5601V25.8328H220.232C220.914 25.8328 221.474 25.9493 221.911 26.1822C222.349 26.4123 222.673 26.7291 222.883 27.1325C223.093 27.5359 223.198 27.9947 223.198 28.5089C223.198 29.0231 223.093 29.4791 222.883 29.8768C222.673 30.2745 222.35 30.587 221.915 30.8143C221.481 31.0388 220.925 31.151 220.249 31.151H217.863V30.1964H220.215C220.681 30.1964 221.056 30.1282 221.34 29.9919C221.627 29.8555 221.835 29.6623 221.962 29.4123C222.093 29.1595 222.158 28.8584 222.158 28.5089C222.158 28.1595 222.093 27.8541 221.962 27.5927C221.832 27.3314 221.623 27.1297 221.336 26.9876C221.049 26.8427 220.67 26.7703 220.198 26.7703H218.34V34.5601H217.283ZM221.391 30.6396L223.539 34.5601H222.312L220.198 30.6396H221.391Z" fill="white"/>
<path d="M164.333 83.1143H107.646V93.4953H164.333V83.1143Z" fill="#B83D5D"/>
<path d="M200.664 83.1143H172.32V93.4953H200.664V83.1143Z" fill="#5BE9B9"/>
<path d="M246.23 83.1143H207.192V93.4953H246.23V83.1143Z" fill="white"/>
<path d="M134.103 101.648H107.646V112.029H134.103V101.648Z" fill="#B83D5D"/>
<path d="M186.493 101.648H141.303V112.029H186.493V101.648Z" fill="#5BE9B9"/>
<path d="M246.23 101.648H193.856V112.029H246.23V101.648Z" fill="white"/>
<path d="M142.472 120.182H107.646V130.563H142.472V120.182Z" fill="#B83D5D"/>
<path d="M213.654 120.182H148.142V130.563H213.654V120.182Z" fill="#5BE9B9"/>
<path d="M246.231 120.182H220.674V130.563H246.231V120.182Z" fill="white"/>
<path d="M151.561 138.716H107.646V149.097H151.561V138.716Z" fill="#B83D5D"/>
<path d="M200.664 138.716H158.04V149.097H200.664V138.716Z" fill="#5BE9B9"/>
<path d="M246.23 138.716H207.192V149.097H246.23V138.716Z" fill="white"/>
<path d="M126.904 157.25H107.646V167.631H126.904V157.25Z" fill="#B83D5D"/>
<path d="M171.539 157.25H133.384V167.631H171.539V157.25Z" fill="#5BE9B9"/>
<path d="M246.231 157.25H177.479V167.631H246.231V157.25Z" fill="white"/>
<path d="M162.719 175.784H107.646V186.165H162.719V175.784Z" fill="#B83D5D"/>
<path d="M186.493 175.784H169.56V186.165H186.493V175.784Z" fill="#5BE9B9"/>
<path d="M246.23 175.784H193.856V186.165H246.23V175.784Z" fill="white"/>
<path d="M179.352 194.318H107.646V204.699H179.352V194.318Z" fill="#B83D5D"/>
<path d="M214.734 194.318H185.397V204.699H214.734V194.318Z" fill="#5BE9B9"/>
<path d="M246.231 194.318H220.674V204.699H246.231V194.318Z" fill="white"/>
<path d="M129.603 212.852H107.646V223.233H129.603V212.852Z" fill="#B83D5D"/>
<path d="M162.719 212.852H135.989V223.233H162.719V212.852Z" fill="#5BE9B9"/>
<path d="M246.231 212.852H169.56V223.233H246.231V212.852Z" fill="white"/>
<path d="M255.922 83.1143H253.811V223.233H255.922V83.1143Z" fill="white"/>
<path d="M89.8199 93.4963C92.6868 93.4963 95.0109 91.1722 95.0109 88.3053C95.0109 85.4383 92.6868 83.1143 89.8199 83.1143C86.953 83.1143 84.6289 85.4383 84.6289 88.3053C84.6289 91.1722 86.953 93.4963 89.8199 93.4963Z" fill="white"/>
<path d="M89.8199 112.03C92.6868 112.03 95.0109 109.706 95.0109 106.839C95.0109 103.973 92.6868 101.648 89.8199 101.648C86.953 101.648 84.6289 103.973 84.6289 106.839C84.6289 109.706 86.953 112.03 89.8199 112.03Z" fill="white"/>
<path d="M89.8199 130.564C92.6868 130.564 95.0109 128.24 95.0109 125.373C95.0109 122.506 92.6868 120.182 89.8199 120.182C86.953 120.182 84.6289 122.506 84.6289 125.373C84.6289 128.24 86.953 130.564 89.8199 130.564Z" fill="white"/>
<path d="M89.8199 149.097C92.6868 149.097 95.0109 146.773 95.0109 143.906C95.0109 141.039 92.6868 138.715 89.8199 138.715C86.953 138.715 84.6289 141.039 84.6289 143.906C84.6289 146.773 86.953 149.097 89.8199 149.097Z" fill="white"/>
<path d="M89.8199 167.631C92.6868 167.631 95.0109 165.307 95.0109 162.44C95.0109 159.573 92.6868 157.249 89.8199 157.249C86.953 157.249 84.6289 159.573 84.6289 162.44C84.6289 165.307 86.953 167.631 89.8199 167.631Z" fill="white"/>
<path d="M89.8199 186.166C92.6868 186.166 95.0109 183.842 95.0109 180.975C95.0109 178.108 92.6868 175.784 89.8199 175.784C86.953 175.784 84.6289 178.108 84.6289 180.975C84.6289 183.842 86.953 186.166 89.8199 186.166Z" fill="white"/>
<path d="M89.8199 204.7C92.6868 204.7 95.0109 202.376 95.0109 199.509C95.0109 196.642 92.6868 194.318 89.8199 194.318C86.953 194.318 84.6289 196.642 84.6289 199.509C84.6289 202.376 86.953 204.7 89.8199 204.7Z" fill="white"/>
<path d="M89.8199 223.234C92.6868 223.234 95.0109 220.91 95.0109 218.043C95.0109 215.176 92.6868 212.852 89.8199 212.852C86.953 212.852 84.6289 215.176 84.6289 218.043C84.6289 220.91 86.953 223.234 89.8199 223.234Z" fill="white"/>
<path d="M258.565 31.857C258.565 34.781 256.195 37.151 253.271 37.151C250.347 37.151 247.977 34.781 247.977 31.857C247.977 28.933 250.347 26.563 253.271 26.563C256.194 26.563 258.565 28.933 258.565 31.857Z" fill="#B83D5D"/>
<path d="M245.478 31.751C245.478 34.697 243.09 37.085 240.144 37.085C237.198 37.085 234.81 34.697 234.81 31.751C234.81 28.805 237.198 26.417 240.144 26.417C243.09 26.416 245.478 28.804 245.478 31.751Z" fill="white"/>
<path d="M311.503 53.8921H292.821V59.1261H311.503V53.8921Z" fill="#5906C6"/>
<path d="M349.974 44.5723H292.821V49.8063H349.974V44.5723Z" fill="#8737EF"/>
<path d="M325.842 60.123V62.123" stroke="#0C8D62" stroke-miterlimit="10"/>
<path d="M325.842 65.499V77.316" stroke="#0C8D62" stroke-miterlimit="10" stroke-dasharray="3.38 3.38"/>
<path d="M325.842 79.0039V81.0039H327.842" stroke="#0C8D62" stroke-miterlimit="10"/>
<path d="M331.65 81.0039H390.691" stroke="#0C8D62" stroke-miterlimit="10" stroke-dasharray="3.81 3.81"/>
<path d="M392.596 81.0039H394.596V79.0039" stroke="#0C8D62" stroke-miterlimit="10"/>
<path d="M394.596 74.9468V68.8618" stroke="#0C8D62" stroke-miterlimit="10" stroke-dasharray="4.06 4.06"/>
<path d="M394.596 66.833V64.833" stroke="#0C8D62" stroke-miterlimit="10"/>
<path d="M305.228 21.1104H303.605C303.509 20.6436 303.341 20.2335 303.101 19.8802C302.866 19.5268 302.578 19.2302 302.237 18.9903C301.902 18.746 301.529 18.5627 301.119 18.4406C300.708 18.3185 300.281 18.2574 299.836 18.2574C299.025 18.2574 298.29 18.4624 297.631 18.8725C296.976 19.2825 296.455 19.8867 296.067 20.685C295.683 21.4834 295.491 22.4627 295.491 23.6231C295.491 24.7835 295.683 25.7629 296.067 26.5612C296.455 27.3595 296.976 27.9637 297.631 28.3737C298.29 28.7838 299.025 28.9888 299.836 28.9888C300.281 28.9888 300.708 28.9278 301.119 28.8056C301.529 28.6835 301.902 28.5024 302.237 28.2625C302.578 28.0182 302.866 27.7194 303.101 27.366C303.341 27.0083 303.509 26.5983 303.605 26.1358H305.228C305.106 26.8207 304.883 27.4337 304.56 27.9746C304.238 28.5155 303.836 28.9758 303.356 29.3553C302.877 29.7304 302.338 30.0162 301.74 30.2125C301.147 30.4088 300.512 30.507 299.836 30.507C298.693 30.507 297.677 30.2278 296.787 29.6694C295.897 29.111 295.197 28.317 294.686 27.2875C294.176 26.258 293.921 25.0365 293.921 23.6231C293.921 22.2097 294.176 20.9882 294.686 19.9587C295.197 18.9292 295.897 18.1352 296.787 17.5769C297.677 17.0185 298.693 16.7393 299.836 16.7393C300.512 16.7393 301.147 16.8374 301.74 17.0337C302.338 17.23 302.877 17.518 303.356 17.8975C303.836 18.2727 304.238 18.7307 304.56 19.2716C304.883 19.8082 305.106 20.4211 305.228 21.1104ZM315.179 20.2728C315.101 19.6097 314.782 19.095 314.224 18.7285C313.665 18.3621 312.98 18.1789 312.169 18.1789C311.576 18.1789 311.057 18.2748 310.612 18.4668C310.171 18.6587 309.826 18.9226 309.578 19.2585C309.333 19.5945 309.211 19.9762 309.211 20.4037C309.211 20.7614 309.296 21.0689 309.467 21.3263C309.641 21.5793 309.863 21.7909 310.134 21.961C310.404 22.1268 310.688 22.2642 310.985 22.3733C311.281 22.478 311.554 22.5631 311.803 22.6285L313.164 22.9949C313.513 23.0865 313.901 23.213 314.328 23.3745C314.76 23.5359 315.172 23.7562 315.565 24.0354C315.962 24.3102 316.289 24.6635 316.547 25.0954C316.804 25.5273 316.933 26.0573 316.933 26.6855C316.933 27.4097 316.743 28.064 316.363 28.6486C315.988 29.2331 315.439 29.6977 314.714 30.0424C313.995 30.387 313.12 30.5593 312.09 30.5593C311.131 30.5593 310.3 30.4044 309.597 30.0947C308.899 29.785 308.35 29.3531 307.948 28.7991C307.551 28.2451 307.327 27.6016 307.274 26.8687H308.95C308.993 27.3748 309.163 27.7935 309.46 28.1251C309.761 28.4523 310.14 28.6966 310.599 28.858C311.061 29.015 311.558 29.0935 312.09 29.0935C312.71 29.0935 313.266 28.9932 313.759 28.7925C314.252 28.5875 314.642 28.3039 314.93 27.9419C315.218 27.5754 315.362 27.1479 315.362 26.6593C315.362 26.2144 315.238 25.8523 314.989 25.5731C314.741 25.2939 314.413 25.0671 314.008 24.8926C313.602 24.7181 313.164 24.5654 312.692 24.4345L311.044 23.9634C309.997 23.6624 309.168 23.2327 308.557 22.6743C307.946 22.1159 307.641 21.3852 307.641 20.4822C307.641 19.7319 307.844 19.0775 308.249 18.5191C308.659 17.9564 309.209 17.5201 309.898 17.2104C310.592 16.8963 311.366 16.7393 312.221 16.7393C313.085 16.7393 313.853 16.8941 314.525 17.2039C315.196 17.5092 315.729 17.928 316.121 18.4602C316.518 18.9924 316.728 19.5966 316.749 20.2728H315.179ZM326.93 20.2728C326.851 19.6097 326.533 19.095 325.974 18.7285C325.416 18.3621 324.731 18.1789 323.92 18.1789C323.326 18.1789 322.807 18.2748 322.362 18.4668C321.922 18.6587 321.577 18.9226 321.328 19.2585C321.084 19.5945 320.962 19.9762 320.962 20.4037C320.962 20.7614 321.047 21.0689 321.217 21.3263C321.392 21.5793 321.614 21.7909 321.885 21.961C322.155 22.1268 322.439 22.2642 322.735 22.3733C323.032 22.478 323.305 22.5631 323.553 22.6285L324.914 22.9949C325.263 23.0865 325.651 23.213 326.079 23.3745C326.511 23.5359 326.923 23.7562 327.316 24.0354C327.713 24.3102 328.04 24.6635 328.297 25.0954C328.555 25.5273 328.683 26.0573 328.683 26.6855C328.683 27.4097 328.494 28.064 328.114 28.6486C327.739 29.2331 327.189 29.6977 326.465 30.0424C325.745 30.387 324.871 30.5593 323.841 30.5593C322.881 30.5593 322.05 30.4044 321.348 30.0947C320.65 29.785 320.1 29.3531 319.699 28.7991C319.302 28.2451 319.077 27.6016 319.025 26.8687H320.7C320.744 27.3748 320.914 27.7935 321.211 28.1251C321.512 28.4523 321.891 28.6966 322.349 28.858C322.812 29.015 323.309 29.0935 323.841 29.0935C324.461 29.0935 325.017 28.9932 325.51 28.7925C326.003 28.5875 326.393 28.3039 326.681 27.9419C326.969 27.5754 327.113 27.1479 327.113 26.6593C327.113 26.2144 326.989 25.8523 326.74 25.5731C326.491 25.2939 326.164 25.0671 325.758 24.8926C325.353 24.7181 324.914 24.5654 324.443 24.4345L322.794 23.9634C321.747 23.6624 320.918 23.2327 320.308 22.6743C319.697 22.1159 319.391 21.3852 319.391 20.4822C319.391 19.7319 319.594 19.0775 320 18.5191C320.41 17.9564 320.96 17.5201 321.649 17.2104C322.343 16.8963 323.117 16.7393 323.972 16.7393C324.836 16.7393 325.603 16.8941 326.275 17.2039C326.947 17.5092 327.479 17.928 327.872 18.4602C328.269 18.9924 328.478 19.5966 328.5 20.2728H326.93Z" fill="#2B2B3F"/>
<path d="M409.746 43.5159C409.552 42.8359 409.302 42.1629 409.011 41.5039C408.179 39.6449 407.034 38.0219 405.661 36.6759C404.357 35.3999 402.845 34.3659 401.214 33.6169C401.186 33.5959 401.151 33.5819 401.124 33.5749C398.821 32.5269 396.282 32.0349 393.715 32.1739C391.96 32.2709 390.191 32.6669 388.485 33.3809C388.381 33.4299 388.27 33.4709 388.166 33.5199C385.107 34.8869 382.693 37.1059 381.09 39.7839C379.092 43.0999 378.336 47.1019 379.12 51.0149C379.342 52.1459 379.696 53.2619 380.181 54.3579C383.726 62.3079 393.077 65.8869 401.019 62.3419C405.868 60.1779 409.094 55.8629 410.065 51.0139C410.557 48.5799 410.474 46.0129 409.746 43.5159ZM399.056 57.9309C393.541 60.3869 387.055 57.9029 384.6 52.3879C384.399 51.9369 384.232 51.4789 384.094 51.0149C383.241 48.1289 383.65 45.0839 385.058 42.5799C385.065 42.5589 385.079 42.5309 385.093 42.5109C386.203 40.5549 387.923 38.9179 390.136 37.9329C390.552 37.7529 390.968 37.5929 391.399 37.4679C391.441 37.4469 391.482 37.4329 391.531 37.4259C393.723 36.7809 395.991 36.8639 398.059 37.5509C398.066 37.5509 398.073 37.5579 398.08 37.5579C399.849 38.1539 401.465 39.2019 402.741 40.6169C403.49 41.4419 404.115 42.3999 404.593 43.4749C404.891 44.1409 405.113 44.8209 405.273 45.5009C405.696 47.3599 405.613 49.2539 405.093 51.0159C404.224 53.9909 402.101 56.5709 399.056 57.9309Z" fill="#8737EF"/>
<path d="M410.065 51.0149H405.091C405.611 49.2529 405.694 47.3589 405.271 45.4999C405.111 44.8199 404.889 44.1399 404.591 43.4739C404.112 42.3989 403.488 41.4409 402.739 40.6159C401.463 39.2009 399.846 38.1529 398.078 37.5569C398.071 37.5569 398.064 37.5499 398.057 37.5499C395.99 36.8629 393.721 36.7799 391.529 37.4249C391.481 37.4319 391.439 37.4459 391.397 37.4669C390.967 37.5919 390.551 37.7509 390.134 37.9319C387.921 38.9169 386.201 40.5539 385.091 42.5099C385.077 42.5309 385.063 42.5589 385.056 42.5789C383.648 45.0829 383.238 48.1279 384.092 51.0139H379.118C378.334 47.1009 379.09 43.0989 381.088 39.7829C382.69 37.1049 385.105 34.8859 388.164 33.5189C388.268 33.4699 388.379 33.4289 388.483 33.3799C390.19 32.6659 391.958 32.2699 393.713 32.1729C396.28 32.0339 398.818 32.5269 401.122 33.5739C401.15 33.5809 401.184 33.5949 401.212 33.6159C402.842 34.3649 404.354 35.3989 405.659 36.6749C407.033 38.0209 408.177 39.6439 409.009 41.5029C409.3 42.1619 409.55 42.8349 409.744 43.5149C410.474 46.0129 410.557 48.5799 410.065 51.0149Z" fill="#B83D5D"/>
<path d="M349.975 53.8921H315.247V59.1261H349.975V53.8921Z" fill="#8737EF"/>
<path d="M14.9754 29.4554V28.2924C16.0195 28.2924 16.7479 28.0736 17.1606 27.6359C17.5795 27.1982 17.789 26.4667 17.789 25.4413V22.4401C17.789 21.5773 17.8703 20.8301 18.0328 20.1986C18.2016 19.5671 18.4736 19.045 18.8488 18.6324C19.2239 18.2197 19.7241 17.9133 20.3494 17.7133C20.9746 17.5132 21.7468 17.4132 22.6659 17.4132V19.2514C21.9406 19.2514 21.3685 19.3639 20.9496 19.589C20.5369 19.8141 20.2431 20.1642 20.068 20.6394C19.8992 21.1083 19.8148 21.7086 19.8148 22.4401V26.1916C19.8148 26.6793 19.7491 27.1232 19.6178 27.5233C19.4928 27.9235 19.2583 28.2674 18.9144 28.555C18.5705 28.8426 18.0797 29.0646 17.442 29.2209C16.8105 29.3772 15.9883 29.4554 14.9754 29.4554ZM22.6659 41.4225C21.7468 41.4225 20.9746 41.3225 20.3494 41.1224C19.7241 40.9223 19.2239 40.616 18.8488 40.2033C18.4736 39.7906 18.2016 39.2686 18.0328 38.6371C17.8703 38.0056 17.789 37.2584 17.789 36.3956V33.3944C17.789 32.369 17.5795 31.6375 17.1606 31.1998C16.7479 30.7621 16.0195 30.5433 14.9754 30.5433V29.3803C15.9883 29.3803 16.8105 29.4585 17.442 29.6148C18.0797 29.7711 18.5705 29.9931 18.9144 30.2807C19.2583 30.5683 19.4928 30.9122 19.6178 31.3123C19.7491 31.7125 19.8148 32.1564 19.8148 32.6441V36.3956C19.8148 37.1271 19.8992 37.7273 20.068 38.1963C20.2431 38.6652 20.5369 39.0122 20.9496 39.2373C21.3685 39.4686 21.9406 39.5843 22.6659 39.5843V41.4225ZM14.9754 30.5433V28.2924H17.1887V30.5433H14.9754ZM24.544 29.4554V28.2924C25.5881 28.2924 26.3165 28.0736 26.7292 27.6359C27.1481 27.1982 27.3576 26.4667 27.3576 25.4413V22.4401C27.3576 21.5773 27.4388 20.8301 27.6014 20.1986C27.7702 19.5671 28.0422 19.045 28.4173 18.6324C28.7925 18.2197 29.2927 17.9133 29.9179 17.7133C30.5432 17.5132 31.3153 17.4132 32.2345 17.4132V19.2514C31.5092 19.2514 30.9371 19.3639 30.5182 19.589C30.1055 19.8141 29.8116 20.1642 29.6366 20.6394C29.4678 21.1083 29.3833 21.7086 29.3833 22.4401V26.1916C29.3833 26.6793 29.3177 27.1232 29.1864 27.5233C29.0613 27.9235 28.8269 28.2674 28.483 28.555C28.1391 28.8426 27.6483 29.0646 27.0105 29.2209C26.379 29.3772 25.5569 29.4554 24.544 29.4554ZM32.2345 41.4225C31.3153 41.4225 30.5432 41.3225 29.9179 41.1224C29.2927 40.9223 28.7925 40.616 28.4173 40.2033C28.0422 39.7906 27.7702 39.2686 27.6014 38.6371C27.4388 38.0056 27.3576 37.2584 27.3576 36.3956V33.3944C27.3576 32.369 27.1481 31.6375 26.7292 31.1998C26.3165 30.7621 25.5881 30.5433 24.544 30.5433V29.3803C25.5569 29.3803 26.379 29.4585 27.0105 29.6148C27.6483 29.7711 28.1391 29.9931 28.483 30.2807C28.8269 30.5683 29.0613 30.9122 29.1864 31.3123C29.3177 31.7125 29.3833 32.1564 29.3833 32.6441V36.3956C29.3833 37.1271 29.4678 37.7273 29.6366 38.1963C29.8116 38.6652 30.1055 39.0122 30.5182 39.2373C30.9371 39.4686 31.5092 39.5843 32.2345 39.5843V41.4225ZM24.544 30.5433V28.2924H26.7573V30.5433H24.544ZM41.728 29.3803V30.5433C40.6838 30.5433 39.9523 30.7621 39.5334 31.1998C39.1207 31.6375 38.9144 32.369 38.9144 33.3944V36.3956C38.9144 37.2584 38.83 38.0056 38.6612 38.6371C38.4986 39.2686 38.2298 39.7906 37.8546 40.2033C37.4795 40.616 36.9793 40.9223 36.354 41.1224C35.7288 41.3225 34.9566 41.4225 34.0375 41.4225V39.5843C34.7628 39.5843 35.3318 39.4686 35.7444 39.2373C36.1633 39.0122 36.4572 38.6652 36.626 38.1963C36.8011 37.7273 36.8886 37.1271 36.8886 36.3956V32.6441C36.8886 32.1564 36.9511 31.7125 37.0762 31.3123C37.2075 30.9122 37.4451 30.5683 37.789 30.2807C38.1328 29.9931 38.6205 29.7711 39.252 29.6148C39.8898 29.4585 40.7151 29.3803 41.728 29.3803ZM34.0375 17.4132C34.9566 17.4132 35.7288 17.5132 36.354 17.7133C36.9793 17.9133 37.4795 18.2197 37.8546 18.6324C38.2298 19.045 38.4986 19.5671 38.6612 20.1986C38.83 20.8301 38.9144 21.5773 38.9144 22.4401V25.4413C38.9144 26.4667 39.1207 27.1982 39.5334 27.6359C39.9523 28.0736 40.6838 28.2924 41.728 28.2924V29.4554C40.7151 29.4554 39.8898 29.3772 39.252 29.2209C38.6205 29.0646 38.1328 28.8426 37.789 28.555C37.4451 28.2674 37.2075 27.9235 37.0762 27.5233C36.9511 27.1232 36.8886 26.6793 36.8886 26.1916V22.4401C36.8886 21.7086 36.8011 21.1083 36.626 20.6394C36.4572 20.1642 36.1633 19.8141 35.7444 19.589C35.3318 19.3639 34.7628 19.2514 34.0375 19.2514V17.4132ZM41.728 28.2924V30.5433H39.5146V28.2924H41.728ZM51.2966 29.3803V30.5433C50.2524 30.5433 49.5209 30.7621 49.102 31.1998C48.6893 31.6375 48.483 32.369 48.483 33.3944V36.3956C48.483 37.2584 48.3986 38.0056 48.2298 38.6371C48.0672 39.2686 47.7983 39.7906 47.4232 40.2033C47.048 40.616 46.5478 40.9223 45.9226 41.1224C45.2974 41.3225 44.5252 41.4225 43.6061 41.4225V39.5843C44.3314 39.5843 44.9003 39.4686 45.313 39.2373C45.7319 39.0122 46.0258 38.6652 46.1946 38.1963C46.3697 37.7273 46.4572 37.1271 46.4572 36.3956V32.6441C46.4572 32.1564 46.5197 31.7125 46.6448 31.3123C46.7761 30.9122 47.0137 30.5683 47.3575 30.2807C47.7014 29.9931 48.1891 29.7711 48.8206 29.6148C49.4584 29.4585 50.2837 29.3803 51.2966 29.3803ZM43.6061 17.4132C44.5252 17.4132 45.2974 17.5132 45.9226 17.7133C46.5478 17.9133 47.048 18.2197 47.4232 18.6324C47.7983 19.045 48.0672 19.5671 48.2298 20.1986C48.3986 20.8301 48.483 21.5773 48.483 22.4401V25.4413C48.483 26.4667 48.6893 27.1982 49.102 27.6359C49.5209 28.0736 50.2524 28.2924 51.2966 28.2924V29.4554C50.2837 29.4554 49.4584 29.3772 48.8206 29.2209C48.1891 29.0646 47.7014 28.8426 47.3575 28.555C47.0137 28.2674 46.7761 27.9235 46.6448 27.5233C46.5197 27.1232 46.4572 26.6793 46.4572 26.1916V22.4401C46.4572 21.7086 46.3697 21.1083 46.1946 20.6394C46.0258 20.1642 45.7319 19.8141 45.313 19.589C44.9003 19.3639 44.3314 19.2514 43.6061 19.2514V17.4132ZM51.2966 28.2924V30.5433H49.0832V28.2924H51.2966Z" fill="#2B2B3F"/>
<path d="M42.833 67.5059H22.293V77.3079H42.833V67.5059Z" fill="#5906C6"/>
<path d="M42.833 84.6299H22.293V94.4319H42.833V84.6299Z" fill="#5906C6"/>
<path d="M42.833 101.755H22.293V111.557H42.833V101.755Z" fill="#5BE9B9"/>
<path d="M42.833 118.88H22.293V128.682H42.833V118.88Z" fill="#5BE9B9"/>
<path d="M42.833 136.005H22.293V145.807H42.833V136.005Z" fill="#5BE9B9"/>
<path d="M42.833 153.13H22.293V162.932H42.833V153.13Z" fill="#5BE9B9"/>
<path d="M42.833 170.254H22.293V180.056H42.833V170.254Z" fill="#5BE9B9"/>
<path d="M623.27 260.248C623.27 260.177 623.279 260.115 623.279 260.043C623.279 259.972 623.27 259.91 623.27 259.847C624.293 259.375 625.326 258.833 626.34 258.174C627.425 257.426 628.529 256.563 629.553 255.575L629.33 254.703C629.116 253.715 628.734 252.763 628.387 251.811C628.191 251.348 627.96 250.894 627.737 250.441C627.532 249.969 627.283 249.533 627.007 249.106L626.544 248.341C625.147 248.35 623.732 248.528 622.441 248.768C621.275 249.008 620.145 249.355 619.095 249.756L618.81 249.471C619.202 248.412 619.558 247.29 619.789 246.125C620.038 244.835 620.216 243.419 620.225 242.022L619.46 241.559C619.033 241.283 618.588 241.034 618.125 240.829C617.671 240.606 617.217 240.375 616.745 240.179C615.793 239.832 614.85 239.449 613.862 239.236L612.99 239.013C612.002 240.036 611.139 241.131 610.391 242.226C609.733 243.232 609.19 244.264 608.718 245.296C608.656 245.296 608.585 245.278 608.522 245.278C608.451 245.278 608.388 245.296 608.317 245.296C607.854 244.264 607.302 243.231 606.643 242.226C605.905 241.131 605.033 240.037 604.054 239.013L603.182 239.236C602.185 239.449 601.242 239.832 600.29 240.179C599.827 240.375 599.373 240.606 598.91 240.829C598.447 241.034 598.011 241.283 597.575 241.559L596.81 242.022C596.828 243.419 597.006 244.834 597.246 246.125C597.486 247.291 597.833 248.412 598.234 249.471C598.136 249.569 598.038 249.658 597.949 249.756C596.889 249.355 595.768 249.009 594.603 248.768C593.313 248.528 591.889 248.35 590.5 248.341L590.028 249.106C589.761 249.533 589.512 249.969 589.298 250.441C589.085 250.895 588.853 251.349 588.657 251.811C588.301 252.763 587.928 253.716 587.714 254.703L587.492 255.575C588.515 256.563 589.61 257.426 590.705 258.174C591.71 258.832 592.743 259.375 593.766 259.847C593.766 259.909 593.757 259.972 593.757 260.043C593.757 260.114 593.766 260.177 593.766 260.248C592.743 260.711 591.71 261.263 590.705 261.921C589.61 262.66 588.516 263.532 587.492 264.511L587.714 265.383C587.928 266.371 588.301 267.323 588.657 268.275C588.853 268.738 589.085 269.192 589.298 269.654C589.511 270.117 589.761 270.553 590.028 270.98L590.5 271.745C591.888 271.736 593.312 271.558 594.603 271.318C595.769 271.078 596.89 270.731 597.949 270.33C598.038 270.428 598.136 270.526 598.234 270.615C597.833 271.674 597.486 272.795 597.246 273.961C597.006 275.251 596.828 276.675 596.81 278.064L597.575 278.536C598.011 278.803 598.447 279.052 598.91 279.257C599.373 279.48 599.827 279.711 600.29 279.907C601.242 280.263 602.185 280.637 603.182 280.85L604.054 281.073C605.033 280.049 605.905 278.955 606.643 277.86C607.302 276.855 607.854 275.822 608.317 274.79C608.388 274.799 608.45 274.808 608.522 274.808C608.584 274.808 608.655 274.799 608.718 274.79C609.19 275.822 609.733 276.855 610.391 277.86C611.139 278.955 612.002 280.049 612.99 281.073L613.862 280.85C614.85 280.636 615.793 280.263 616.745 279.907C617.217 279.711 617.671 279.48 618.125 279.257C618.588 279.052 619.033 278.803 619.46 278.536L620.225 278.064C620.216 276.676 620.038 275.252 619.789 273.961C619.557 272.795 619.201 271.674 618.81 270.615C618.908 270.526 618.997 270.428 619.095 270.33C620.145 270.73 621.275 271.078 622.441 271.318C623.732 271.558 625.147 271.736 626.544 271.745L627.007 270.98C627.283 270.553 627.532 270.117 627.737 269.654C627.959 269.191 628.191 268.737 628.387 268.275C628.734 267.323 629.117 266.371 629.33 265.383L629.553 264.511C628.53 263.532 627.426 262.66 626.34 261.921C625.326 261.263 624.294 260.711 623.27 260.248ZM608.524 267.101C604.626 267.101 601.467 263.942 601.467 260.044C601.467 256.146 604.627 252.987 608.524 252.987C612.422 252.987 615.581 256.146 615.581 260.044C615.581 263.942 612.422 267.101 608.524 267.101Z" fill="#5906C6"/>
<path d="M558.419 234.04H549.101V276.008H558.419V234.04Z" fill="#B83D5D"/>
<path d="M545.344 252.531H535.355V276.007H545.344V252.531Z" fill="#8025F5"/>
<path d="M531.508 260.044H521.52V276.008H531.508V260.044Z" fill="#0C8D62"/>
<path d="M519.752 269.322H517.752" stroke="#0C8D62" stroke-miterlimit="10"/>
<path d="M512.681 269.322H505.075" stroke="#0C8D62" stroke-miterlimit="10" stroke-dasharray="5.07 5.07"/>
<path d="M502.539 269.322H500.539V271.322" stroke="#0C8D62" stroke-miterlimit="10"/>
<path d="M500.539 275.063V303.116" stroke="#0C8D62" stroke-miterlimit="10" stroke-dasharray="3.74 3.74"/>
<path d="M500.539 304.987V306.987H502.539" stroke="#0C8D62" stroke-miterlimit="10"/>
<path d="M505.936 306.987H517.822" stroke="#0C8D62" stroke-miterlimit="10" stroke-dasharray="3.4 3.4"/>
<path d="M519.52 306.987H521.52" stroke="#0C8D62" stroke-miterlimit="10"/>
<path d="M551.112 305.122H524.683V309.845H551.112V305.122Z" fill="#5906C6"/>
<path d="M542.963 313.861H524.683V318.584H542.963V313.861Z" fill="#5906C6"/>
<path d="M547.821 322.6H524.683V327.323H547.821V322.6Z" fill="#5906C6"/>
<path d="M558.009 322.6H552.607V327.323H558.009V322.6Z" fill="#5BE9B9"/>
<path d="M582.835 322.6H562.962V327.323H582.835V322.6Z" fill="#5BE9B9"/>
<path d="M582.834 313.861H548.82V318.584H582.834V313.861Z" fill="#5BE9B9"/>
<path d="M582.834 305.122H556.405V309.845H582.834V305.122Z" fill="#5BE9B9"/>
<path d="M673.472 257.483H656.057V265.794H673.472V257.483Z" fill="#B83D5D"/>
<path d="M673.472 272.003H656.057V280.314H673.472V272.003Z" fill="#B83D5D"/>
<path d="M673.472 286.522H656.057V294.833H673.472V286.522Z" fill="#B83D5D"/>
<path d="M673.472 301.041H656.057V309.352H673.472V301.041Z" fill="#B83D5D"/>
<path d="M673.472 315.56H656.057V323.871H673.472V315.56Z" fill="#5906C6"/>
<path d="M673.472 330.079H656.057V338.39H673.472V330.079Z" fill="#5906C6"/>
<path d="M673.472 344.599H656.057V352.91H673.472V344.599Z" fill="#5906C6"/>
<path d="M597.545 376.724C591.036 377.214 585.588 375.667 581.035 372.842C562.665 361.474 558.832 329.412 558.568 327.004C558.729 327.743 560.54 331.663 579.634 344.509C581.223 345.581 582.678 346.668 584.006 347.767C584.006 347.767 584.029 347.786 584.075 347.82C600.715 361.6 597.545 376.724 597.545 376.724Z" fill="#47547C"/>
<path d="M558.556 326.862C558.556 326.862 575.71 368.956 594.739 373.387" stroke="white" stroke-miterlimit="10"/>
<path opacity="0.5" d="M597.545 376.725C591.036 377.215 585.588 375.668 581.035 372.843C584.692 364.19 584.006 347.769 584.006 347.769C584.006 347.769 584.029 347.788 584.075 347.822C600.715 361.601 597.545 376.725 597.545 376.725Z" fill="#2B2B3F"/>
<path d="M646.305 329.346C646.232 329.794 645.976 331.348 645.463 333.638C645.463 333.638 645.463 333.642 645.463 333.646C642.752 345.783 632.97 378.443 606.651 375.169C606.651 375.169 606.207 372.366 607.095 368.174C608.397 362.01 612.582 352.832 625.312 345.136C644.202 333.711 646.113 330.043 646.305 329.346Z" fill="#47547C"/>
<path opacity="0.5" d="M645.462 333.638C645.462 333.638 645.462 333.642 645.462 333.646C642.751 345.783 632.969 378.443 606.65 375.169C606.65 375.169 606.206 372.366 607.094 368.174H607.121C629.018 369.345 645.462 333.638 645.462 333.638Z" fill="#2B2B3F"/>
<path d="M645.462 331.939C645.462 331.939 631.955 366.935 608.524 374.072" stroke="white" stroke-miterlimit="10"/>
<path d="M605.237 376.337C604.586 377.467 594.976 373.473 590.646 361.918H590.642C588.042 354.976 587.349 345.305 591.645 332.383C602.932 298.445 598.28 292.047 598.142 291.867C598.368 291.974 608.177 296.845 614.502 308.695C614.502 308.695 614.51 308.71 614.529 308.741C621.486 321.811 624.201 343.352 605.237 376.337Z" fill="#2B2B3F"/>
<path d="M598.138 291.862C598.138 291.862 612.856 310.432 607.252 345.755C601.647 381.077 605.238 376.336 605.238 376.336" stroke="white" stroke-miterlimit="10"/>
<path opacity="0.5" d="M605.237 376.337C604.586 377.467 594.976 373.473 590.646 361.918C614.878 368.802 614.503 308.694 614.503 308.694C614.503 308.694 614.511 308.709 614.53 308.74C621.486 321.811 624.201 343.352 605.237 376.337Z" fill="#47547C"/>
<path d="M558.553 326.862C558.553 326.862 558.557 326.9 558.565 326.981C558.545 326.896 558.553 326.862 558.553 326.862Z" fill="#1DB984"/>
<path d="M623.864 375.831V402.958C623.864 410.895 617.432 417.327 609.495 417.327H596.738C591.542 417.327 586.99 414.57 584.467 410.435H584.463C583.134 408.256 582.369 405.695 582.369 402.957V375.83H623.864V375.831Z" fill="#2B2B3F"/>
<path d="M625.373 372.312H580.862C580.277 372.312 579.803 372.786 579.803 373.371V374.772C579.803 375.357 580.277 375.831 580.862 375.831H625.373C625.958 375.831 626.432 375.357 626.432 374.772V373.371C626.432 372.787 625.958 372.312 625.373 372.312Z" fill="#2B2B3F"/>
<path d="M623.865 375.831V402.958C623.865 410.895 617.433 417.327 609.496 417.327H596.739C591.543 417.327 586.991 414.57 584.468 410.435C614.861 419.98 621.462 397.632 620.286 388.768C619.114 379.905 608.164 375.831 608.164 375.831H623.865Z" fill="#47547C"/>
</svg>
