<svg width="45" height="45" viewBox="0 0 45 45" fill="none" xmlns="http://www.w3.org/2000/svg">
<path d="M44.8838 9.86784C44.681 8.84602 44.2279 7.91096 43.5952 7.13849C43.4617 6.97018 43.3223 6.81944 43.1713 6.66871C42.0502 5.54213 40.4768 4.83936 38.7579 4.83936H6.24208C4.5232 4.83936 2.95541 5.54213 1.82909 6.66871C1.67836 6.81944 1.53896 6.97018 1.4052 7.13849C0.772119 7.91087 0.319043 8.84602 0.121816 9.86784C0.0407813 10.2622 0 10.6698 0 11.0818V33.9187C0 34.7948 0.185801 35.6369 0.517148 36.3974C0.824502 37.1234 1.27767 37.7803 1.829 38.3311C1.96875 38.4705 2.10753 38.5987 2.25896 38.7261C3.33879 39.6204 4.73265 40.1605 6.24208 40.1605H38.7579C40.2679 40.1605 41.6678 39.6204 42.7414 38.7205C42.8924 38.5987 43.0319 38.4705 43.1713 38.3311C43.7223 37.7803 44.1754 37.1234 44.4891 36.3974V36.3918C44.8204 35.6313 44.9999 34.7948 44.9999 33.9188V11.0818C45 10.6698 44.9598 10.2622 44.8838 9.86784ZM4.08771 8.92706C4.64537 8.37001 5.39429 8.03277 6.24208 8.03277H38.7579C39.6057 8.03277 40.3612 8.37001 40.9123 8.92706C41.0109 9.02629 41.1038 9.13686 41.1858 9.24672L24.1432 24.0998C23.6732 24.5117 23.0926 24.7152 22.5 24.7152C21.9134 24.7152 21.3332 24.5117 20.8569 24.0998L3.82078 9.24039C3.89619 9.13053 3.98909 9.02629 4.08771 8.92706ZM3.19342 33.9187V12.545L15.5266 23.3041L3.19966 34.0518C3.19342 34.011 3.19342 33.9652 3.19342 33.9187ZM38.7579 36.9664H6.24208C5.69004 36.9664 5.17351 36.8213 4.73265 36.5664L17.7385 25.2321L18.9527 26.2884C19.9688 27.1713 21.2404 27.6185 22.5 27.6185C23.7662 27.6185 25.0376 27.1713 26.0536 26.2884L27.2672 25.2321L40.268 36.5664C39.8265 36.8213 39.31 36.9664 38.7579 36.9664ZM41.8066 33.9187C41.8066 33.9652 41.8066 34.011 41.8006 34.0518L29.4738 23.3104L41.8066 12.5507V33.9187Z" fill="#EAD5BA"/>
</svg>
