<svg width="45" height="45" viewBox="0 0 45 45" xmlns="http://www.w3.org/2000/svg">
<g clip-path="url(#clip0_141_128)">
<path fill-rule="evenodd" clip-rule="evenodd" d="M22.5 2.89772C11.1465 2.89772 1.95653 12.0406 1.95653 23.3019C1.95653 31.5701 6.91144 38.6865 14.0443 41.8881C14.79 42.2227 15.5202 42.0904 16.0898 41.6634C16.6736 41.2258 17.0873 40.4724 17.0873 39.5865V38.5174L14.5428 38.1727C14.5243 38.1703 14.5059 38.1673 14.4876 38.1637C13.0831 37.8906 12.1369 37.3974 11.4434 36.6866C10.8594 36.0881 10.5036 35.3711 10.202 34.7634C10.1663 34.6916 10.1314 34.6213 10.097 34.5529C9.71522 33.7942 9.44312 33.2557 9.18345 32.8446C8.93102 32.445 8.73351 32.2382 8.53896 32.1092C8.04291 31.7807 7.56808 31.2246 7.56808 30.528C7.56808 30.1459 7.72219 29.7553 8.05618 29.4787C8.3709 29.2181 8.74944 29.1366 9.07847 29.1366C9.4956 29.1366 9.88697 29.2642 10.2137 29.4109C10.5476 29.5607 10.8782 29.7602 11.1878 29.9664C11.9413 30.4687 12.6843 31.0641 13.3126 31.7955C13.9668 32.5571 14.4291 33.042 15.1283 33.1412C15.7005 33.2224 16.2858 33.2248 16.7421 33.204C16.7621 33.0956 16.7866 32.9809 16.8167 32.8618C16.8706 32.6481 16.9462 32.4054 17.0534 32.1544C16.5357 32.0329 15.9742 31.8744 15.4096 31.6742C14.182 31.2388 12.8165 30.5634 11.8975 29.5361C10.888 28.4077 10.2633 27.4022 9.91436 26.2234C9.57474 25.0761 9.51923 23.8337 9.51923 22.3022C9.51923 19.9605 10.534 17.9852 11.2942 16.9377C11.0443 16.1401 10.7829 15.1045 10.6671 14.122C10.596 13.5186 10.5727 12.88 10.6687 12.3082C10.7612 11.7577 10.9973 11.0832 11.6135 10.675C12.2088 10.2807 12.9047 10.2968 13.4486 10.3994C14.0142 10.5061 14.6009 10.7404 15.1405 11.0074C16.0191 11.4422 16.8934 12.0248 17.5484 12.5167C18.6777 12.185 20.6741 11.7586 22.4786 11.7189C22.4929 11.7186 22.5071 11.7186 22.5214 11.7189C24.3274 11.7586 26.2356 12.185 27.3354 12.5151C27.9902 12.0235 28.8636 11.4418 29.7413 11.0074C30.2809 10.7404 30.8676 10.5061 31.4333 10.3994C31.977 10.2968 32.673 10.2807 33.2683 10.675C33.8844 11.0832 34.1205 11.7577 34.2129 12.3082C34.3089 12.88 34.2857 13.5186 34.2146 14.122C34.0988 15.1045 33.8374 16.1401 33.5876 16.9377C34.3478 17.9852 35.3625 19.9605 35.3625 22.3022C35.3625 23.8337 35.307 25.0761 34.9674 26.2234C34.6185 27.4022 33.9938 28.4077 32.9842 29.5361C32.0653 30.5634 30.6998 31.2388 29.4722 31.6742C28.779 31.92 28.0905 32.1028 27.4821 32.2316C27.7125 32.9287 27.7944 33.4931 27.7944 33.8169V39.6103C27.7944 40.4932 28.2056 41.2453 28.7873 41.6839C29.355 42.1121 30.0836 42.2473 30.8295 41.9188C38.0276 38.7465 43.0434 31.6131 43.0434 23.3019C43.0434 12.0406 33.8535 2.89772 22.5 2.89772ZM17.7679 35.0818C17.2818 35.1514 17.7651 35.0824 17.7651 35.0824L17.76 35.0829L17.7443 35.0852L17.6909 35.0919C17.6459 35.0976 17.5824 35.1051 17.503 35.1131C17.3444 35.1292 17.1209 35.1484 16.8535 35.1611C16.3242 35.1862 15.5982 35.1876 14.8538 35.082C13.3697 34.8712 12.4696 33.8209 11.8853 33.1391C11.8664 33.117 11.8479 33.0954 11.8296 33.0741C11.642 32.8556 11.4366 32.6484 11.2163 32.4506C11.41 32.8078 11.6095 33.2044 11.8252 33.633L11.844 33.6703C11.8775 33.7369 11.9097 33.8012 11.9409 33.8634C12.2681 34.5167 12.4855 34.9506 12.8424 35.3164C13.1902 35.6728 13.735 36.0167 14.8336 36.2342L18.1966 36.6896C18.6819 36.7554 19.0438 37.1704 19.0438 37.6609V39.5865C19.0438 41.0874 18.3415 42.4236 17.262 43.2328C16.1683 44.0527 14.6879 44.325 13.2444 43.677C5.44118 40.1747 0 32.3786 0 23.3019C0 10.9427 10.0813 0.9375 22.5 0.9375C34.9187 0.9375 45 10.9427 45 23.3019C45 32.4289 39.4897 40.2437 31.6172 43.713C30.1742 44.349 28.6993 44.0709 27.6107 43.2501C26.5359 42.4395 25.8379 41.1064 25.8379 39.6103V33.8169C25.8379 33.6857 25.7462 32.9276 25.2332 31.9082C25.0888 31.6213 25.0939 31.2819 25.2467 30.9996C25.3997 30.7174 25.6809 30.528 25.9995 30.4927C26.6411 30.4219 27.7256 30.2141 28.8193 29.8264C29.9331 29.4313 30.9326 28.8926 31.5272 28.2279C32.4098 27.2413 32.8492 26.4846 33.0917 25.6659C33.3433 24.8158 33.4059 23.8258 33.4059 22.3022C33.4059 20.1634 32.2817 18.3656 31.7638 17.7866C31.5251 17.5199 31.4507 17.144 31.5697 16.8062C31.8304 16.0664 32.1506 14.918 32.2716 13.8921C32.3325 13.3753 32.3359 12.9447 32.2836 12.6334C32.2485 12.4239 32.2009 12.3373 32.1827 12.31C32.1489 12.3008 32.0381 12.28 31.7953 12.3258C31.476 12.386 31.0693 12.5365 30.6077 12.765C29.6897 13.2192 28.7336 13.891 28.1394 14.3707C27.8736 14.5854 27.5151 14.6456 27.1939 14.5295C26.4396 14.257 24.3799 13.7242 22.5 13.6792C20.6117 13.7244 18.4339 14.26 17.6879 14.5295C17.3667 14.6456 17.0082 14.5854 16.7423 14.3707C16.1481 13.891 15.192 13.2192 14.274 12.765C13.8124 12.5365 13.4058 12.386 13.0865 12.3258C12.8436 12.28 12.7328 12.3008 12.6992 12.31C12.6809 12.3373 12.6333 12.4239 12.5981 12.6334C12.5459 12.9447 12.5492 13.3753 12.6101 13.8921C12.7311 14.918 13.0514 16.0664 13.312 16.8062C13.431 17.144 13.3566 17.5199 13.118 17.7866C12.6 18.3656 11.4757 20.1634 11.4757 22.3022C11.4757 23.8258 11.5385 24.8158 11.7901 25.6659C12.0324 26.4846 12.472 27.2413 13.3545 28.2279C13.9491 28.8926 14.9487 29.4313 16.0625 29.8264C17.156 30.2141 18.2407 30.4219 18.8822 30.4927C19.2855 30.5372 19.6194 30.8265 19.7216 31.2197C19.824 31.6129 19.6734 32.0287 19.3434 32.2648C19.0333 32.4864 18.8293 32.8834 18.7136 33.3422C18.6589 33.5587 18.6321 33.7581 18.6193 33.9024C18.6129 33.9739 18.6102 34.0297 18.609 34.0648L18.6082 34.1004C18.6137 34.5922 18.254 35.0124 17.7679 35.0818Z" fill="#EAD5BA"/>
</g>
<defs>
<clipPath id="clip0_141_128">
<rect width="45" height="45" fill="white"/>
</clipPath>
</defs>
</svg>
