<svg width="0" height="0" class="hidden">
  <symbol id="simple-icon" width="111" height="50" viewBox="0 0 111 50" fill="none">
    <path d="M30.8113 10.5468V13.594M30.8113 35.5535V22.9359M30.8113 35.5535C29.0213 34.521 27.489 33.2501 26.0844 31.8355M30.8113 35.5535V47.5M5.96832 13.594C6.98864 13.9822 7.94456 14.4094 8.84416 14.8697M30.8113 22.9359V13.594M30.8113 22.9359C32.3515 22.5789 37.7164 20.5307 39 19.6585M58.2013 6.7987C57.2739 7.15365 56.3994 7.5409 55.5714 7.95408M30.8113 13.594L27.0438 10.5468M26.0844 31.8355C22.9675 32.8414 16.5292 34.152 15.711 31.3468M26.0844 31.8355C25.5544 31.3017 25.0426 30.7475 24.542 30.1779M24.542 30.1779C23.7412 27.1585 22.4318 20.8273 23.6007 19.6585M24.542 30.1779C22.2675 27.5901 20.224 24.685 17.7565 21.9397M17.7565 21.9397C18.1948 18.762 18.6331 12.2205 16.8799 11.4766M17.7565 21.9397C15.8571 23.2734 11.6786 25.4442 10.1591 23.4572M17.7565 21.9397C15.796 19.7586 13.5679 17.6783 10.7435 15.9383M10.7435 15.9383C11.2305 13.8179 11.7955 9.43119 10.1591 8.84678M10.7435 15.9383C10.1388 15.5657 9.50675 15.2087 8.84416 14.8697M8.84416 14.8697L3 17.7591M39 19.6585C41.8247 20.5092 48.6461 23.0812 51.3344 21.0393M39 19.6585C38.7078 16.2752 39.0032 10.6851 40.5227 9.86688M39 19.6585C41.38 18.0413 43.9916 17.0918 46.4755 14.6883M46.4755 14.6883C49.0691 15.224 54.3734 15.974 54.8409 14.6883M46.4755 14.6883C46.8524 14.3236 47.2378 13.9572 47.6341 13.5913M47.6341 13.5913C47.3091 11.0349 46.9513 5.68831 48.1201 4.75325M47.6341 13.5913C49.3022 12.0513 51.1618 10.5211 53.3799 9.1674M53.3799 9.1674L60.3929 10.8896M53.3799 9.1674C54.0736 8.74399 54.8024 8.33785 55.5714 7.95408M55.5714 7.95408V3" stroke="#A36B21" stroke-width="5" stroke-linecap="round" stroke-linejoin="round"/>
    <path d="M58.5 31.2236C58.5 32.8844 58.5 38.365 58.5 38.6972C58.5 49.4923 71.3337 49.4923 71.3337 38.6972C71.3337 38.365 71.3337 32.8844 71.3337 31.2236M77.7197 46.5859V31.2236L88.5 46.5859V31.2236M107.834 31.2237H101.417H95V47.0011H107.834V38.6972H101.674M36.7998 31.2236H44.5M52.2002 31.2236H44.5M44.5 31.2236V47.0011" stroke="#A36B21" stroke-width="5" stroke-linecap="round" stroke-linejoin="round"/>
  </symbol>

  <symbol id="noname-icon" width="310" height="310" viewBox="0 0 310 310" xmlns="http://www.w3.org/2000/svg">
    <path d="M16.4327 241.726C9.13449 228.833 5 213.975 5 197.156H100.893M16.4327 241.726C16.9075 233.06 34.4643 212.013 100.893 197.156M16.4327 241.726C25.4054 257.578 39.1601 270.46 55.8929 280.362M100.893 197.156H151.92M55.8929 280.362C53.3929 267.66 79.3036 233.237 202.946 197.156M55.8929 280.362C76.0226 292.274 100.462 299.875 126.071 303.146M202.946 197.156H305C305 207.653 303.413 217.38 300.47 226.339M202.946 197.156H151.92M126.071 303.146C198.626 312.416 280.566 286.939 300.47 226.339M126.071 303.146C149.123 280.02 216.275 232.282 300.47 226.339M151.92 197.156V136.669M151.92 5.00006V31.0805M151.92 31.0805L131 5.00006M151.92 31.0805V83.8746M151.92 136.669C144.797 134.271 135.594 130.509 126.071 125.596M151.92 136.669V83.8746M76.25 71.4056C77.0401 91.2306 96.1128 108.197 116.429 120.26M76.25 71.4056C76.1087 67.8594 75.618 64.502 74.8328 61.3243M76.25 71.4056C58.2143 75.1198 22.25 78.3033 22.6786 61.3243M16.4327 10.3873C18.8226 11.3855 22.7568 12.8706 27.5 14.9637M116.429 120.26C110.357 103.975 100.036 69.3894 107.321 61.3243M116.429 120.26C119.634 122.164 122.871 123.945 126.071 125.596M126.071 125.596C100.893 118.348 49.1429 107.133 43.5714 120.26M74.8328 61.3243C79.7062 45.9371 87.9909 14.2076 82.1429 10.3873M74.8328 61.3243C70.4386 43.5411 56.8192 31.3867 43.5714 23.2801M43.5714 23.2801C44.8214 16.6832 47.5 6.5 41.5 5M43.5714 23.2801C37.8943 19.8061 32.2854 17.0754 27.5 14.9637M27.5 14.9637C21.9643 15.1357 9.71429 19.2597 5 25.5001M151.92 83.8746C154.531 83.3519 157.95 82.4495 161.964 81.1211M300 15.864C297 12 282.765 14.5108 275.187 15.864M161.964 81.1211C163.304 66.1383 169.679 33.5943 184.464 23.2801M161.964 81.1211C163.489 80.6164 165.1 80.0502 166.786 79.4199M166.786 79.4199C177.143 87.8025 201.714 102.498 217.143 94.2212M166.786 79.4199C179.009 74.849 195.136 66.9099 210.714 54.6348M210.714 54.6348C209.286 39.7087 209.857 9.00774 223.571 5.61194M210.714 54.6348C212.872 52.9349 215.018 51.1518 217.143 49.283M217.143 49.283C219.313 47.3738 221.46 45.375 223.571 43.2841C236.09 30.8856 249.575 23.5451 261.607 19.4081M217.143 49.283C232.857 57.3105 267.179 70.9574 278.75 61.3243M261.607 19.4081L305 42.5M261.607 19.4081C266.417 17.7542 270.996 16.6123 275.187 15.864M275.187 15.864L278 5" stroke="#A36B21" stroke-width="10" stroke-linecap="round" stroke-linejoin="round"/>
  </symbol>

  <symbol id="logo-skype" width="45" height="45" viewBox="0 0 45 45" xmlns="http://www.w3.org/2000/svg">
    <path fill-rule="evenodd" clip-rule="evenodd" d="M5.625 12.1875C5.625 8.56313 8.56313 5.625 12.1875 5.625C13.9905 5.625 15.6206 6.34961 16.8086 7.52788L17.5731 8.28615L18.6133 8.00796C19.8508 7.677 21.1534 7.5 22.5 7.5C30.7843 7.5 37.5 14.2157 37.5 22.5C37.5 23.8466 37.323 25.1492 36.9921 26.3867L36.7138 27.4269L37.4721 28.1914C38.6503 29.3794 39.375 31.0095 39.375 32.8125C39.375 36.4369 36.4369 39.375 32.8125 39.375C31.0095 39.375 29.3794 38.6503 28.1914 37.4721L27.4269 36.7138L26.3867 36.9921C25.1492 37.323 23.8466 37.5 22.5 37.5C14.2157 37.5 7.5 30.7843 7.5 22.5C7.5 21.1534 7.677 19.8508 8.00796 18.6133L8.28615 17.5731L7.52788 16.8086C6.34961 15.6206 5.625 13.9905 5.625 12.1875ZM12.1875 1.875C6.49206 1.875 1.875 6.49206 1.875 12.1875C1.875 14.6313 2.72687 16.8788 4.14701 18.6453C3.88663 19.8908 3.75 21.1804 3.75 22.5C3.75 32.8552 12.1447 41.25 22.5 41.25C23.8196 41.25 25.1093 41.1133 26.3546 40.8531C28.1213 42.2732 30.3688 43.125 32.8125 43.125C38.508 43.125 43.125 38.508 43.125 32.8125C43.125 30.3688 42.2732 28.1213 40.8531 26.3546C41.1133 25.1093 41.25 23.8196 41.25 22.5C41.25 12.1447 32.8552 3.75 22.5 3.75C21.1804 3.75 19.8908 3.88663 18.6453 4.14701C16.8788 2.72687 14.6313 1.875 12.1875 1.875ZM19.9538 17.4942C20.2024 17.0198 21.0534 16.4062 22.3734 16.4062C24.6354 16.4062 25.8833 17.2915 26.457 17.7294C27.2801 18.3576 28.4569 18.1995 29.085 17.3763C29.7133 16.5531 29.5553 15.3765 28.7319 14.7483C27.8141 14.0478 25.7764 12.6562 22.3734 12.6562C19.9941 12.6562 17.6719 13.77 16.5454 15.9191C15.7313 17.4723 15.8631 19.1672 16.6901 20.5429C17.4932 21.8786 18.8871 22.8332 20.5294 23.2755L23.4424 24.0602C24.5644 24.3622 26.2686 25.4049 25.6549 26.8097C25.2849 27.6568 23.9736 28.5938 22.0421 28.5938C20.3726 28.5938 18.8994 28.3052 17.5438 27.2706C16.7206 26.6424 15.544 26.8005 14.9158 27.6236C14.2876 28.4469 14.4457 29.6235 15.2689 30.2516C17.0852 31.6378 18.9759 32.3438 21.6276 32.3438C24.5884 32.3438 27.8192 31.2232 29.0914 28.3108C29.8403 26.5965 29.5933 24.7995 28.6577 23.3565C27.2181 21.1359 24.7382 20.4943 22.3371 19.8729C22.0581 19.8007 21.7798 19.7288 21.5046 19.6545C20.5183 19.3888 19.3652 18.6171 19.9538 17.4942Z" fill="#EAD5BA"/>
  </symbol>

  <symbol id="position-location" width="45" height="45" viewBox="0 0 45 45" xmlns="http://www.w3.org/2000/svg">
    <g clip-path="url(#clip0_140_41)">
    <path d="M22.4138 44.9139C10 44.9139 0 42.1553 0 38.8794C0 36.638 4.48276 34.7415 11.2069 33.707L13.9655 36.638C7.75862 36.9828 4.48276 38.0173 4.48276 38.8794C4.48276 40.2587 11.8966 41.4656 22.4138 41.4656C32.931 41.4656 40.5172 40.2587 40.5172 38.8794C40.5172 37.8449 37.2414 36.9828 31.0345 36.638L33.7931 33.707C40.5172 34.7415 45 36.638 45 38.8794C44.8276 42.1553 34.8276 44.9139 22.4138 44.9139ZM29.3103 15.6035C29.3103 16.9675 28.9059 18.3009 28.1481 19.435C27.3903 20.5692 26.3132 21.4531 25.053 21.9751C23.7928 22.4971 22.4061 22.6337 21.0683 22.3676C19.7305 22.1015 18.5017 21.4446 17.5372 20.4801C16.5727 19.5156 15.9159 18.2868 15.6498 16.949C15.3837 15.6112 15.5202 14.2245 16.0422 12.9643C16.5642 11.7042 17.4481 10.6271 18.5823 9.86925C19.7164 9.11145 21.0498 8.70698 22.4138 8.70698C24.2412 8.71243 25.9922 9.44079 27.2844 10.733C28.5765 12.0251 29.3049 13.7761 29.3103 15.6035ZM18.9655 15.6035C18.9655 16.2855 19.1678 16.9522 19.5467 17.5193C19.9256 18.0863 20.4641 18.5283 21.0942 18.7893C21.7243 19.0503 22.4176 19.1186 23.0865 18.9855C23.7554 18.8525 24.3698 18.5241 24.8521 18.0418C25.3343 17.5596 25.6628 16.9452 25.7958 16.2763C25.9289 15.6074 25.8606 14.914 25.5996 14.2839C25.3386 13.6538 24.8966 13.1153 24.3295 12.7364C23.7625 12.3575 23.0958 12.1553 22.4138 12.1553C21.5001 12.158 20.6246 12.5222 19.9785 13.1682C19.3324 13.8143 18.9682 14.6898 18.9655 15.6035ZM24.1379 36.2932L22.4138 38.0173L20.6897 36.2932C20.1724 35.6035 9.31035 26.2932 7.24138 18.1897C7.06897 17.6725 6.72414 15.7759 8.62069 15.6035C10.1724 15.4311 10.5172 17.3277 10.5172 17.3277C11.8965 23.3621 19.4828 29.2242 22.4138 32.8449C25.5172 28.8794 34.4828 22.3277 34.4828 15.6035C34.4828 7.84491 30 3.53456 22.4138 3.53456C16.7241 3.53456 12.7586 5.94836 11.2069 10.4311C11.2069 10.4311 10.5172 12.5001 9.31035 12.1553C7.93104 11.8104 7.75862 10.7759 8.27586 9.22422C9.73731 5.99358 12.2611 3.3609 15.4272 1.7644C18.5933 0.167898 22.2106 -0.296116 25.6772 0.44959C29.1437 1.1953 32.2503 3.10574 34.4798 5.86292C36.7093 8.62011 37.9273 12.0577 37.931 15.6035C37.931 24.2242 24.8276 35.6035 24.1379 36.2932Z" fill="#EAD5BA"/>
    </g>
    <defs>
    <clipPath id="clip0_140_41">
    <rect width="45" height="45" fill="white"/>
    </clipPath>
    </defs>
  </symbol>

  <symbol id="phone" width="45" height="45" viewBox="0 0 45 45" xmlns="http://www.w3.org/2000/svg">
    <path d="M7.03512 12.9857C6.99349 12.2102 6.33105 11.6152 5.55552 11.6568C4.77998 11.6985 4.18504 12.3609 4.22667 13.1364L7.03512 12.9857ZM8.84609 5.79769C8.31122 6.36081 8.33412 7.25089 8.89723 7.78577C9.46035 8.32063 10.3504 8.29774 10.8853 7.73462L8.84609 5.79769ZM19.9956 37.148C20.6531 37.5613 21.5213 37.3633 21.9345 36.7057C22.3478 36.0481 22.1496 35.18 21.492 34.7668L19.9956 37.148ZM28.3373 37.6094C27.5771 37.4503 26.8318 37.9376 26.6726 38.6977C26.5135 39.4578 27.0006 40.2031 27.7609 40.3623L28.3373 37.6094ZM29.334 29.1444L30.1879 28.2453L28.1486 26.3084L27.2948 27.2075L29.334 29.1444ZM32.998 27.8668L36.5801 29.9287L37.9832 27.4912L34.401 25.4293L32.998 27.8668ZM37.2715 34.2035L34.608 37.0078L36.6473 38.9446L39.3107 36.1406L37.2715 34.2035ZM15.6739 29.9225C8.40615 22.2708 7.18707 15.8166 7.03512 12.9857L4.22667 13.1364C4.41276 16.6037 5.88497 23.7005 13.6347 31.8594L15.6739 29.9225ZM18.2527 17.4779L18.7905 16.9117L16.7512 14.9748L16.2134 15.541L18.2527 17.4779ZM19.213 9.86267L16.8486 6.51862L14.5521 8.14232L16.9164 11.4863L19.213 9.86267ZM17.2331 16.5094C16.2134 15.541 16.2121 15.5424 16.2108 15.5437C16.2104 15.5442 16.2091 15.5456 16.2082 15.5465C16.2064 15.5485 16.2046 15.5504 16.2027 15.5524C16.199 15.5563 16.1952 15.5605 16.1913 15.5648C16.1834 15.5735 16.1751 15.5828 16.1663 15.5929C16.1488 15.6131 16.1295 15.6361 16.1089 15.6622C16.0677 15.7143 16.0211 15.7783 15.9721 15.8547C15.8741 16.008 15.7677 16.2099 15.6776 16.4631C15.4944 16.9779 15.3946 17.6596 15.5193 18.511C15.7644 20.1838 16.8604 22.4332 19.7243 25.4482L21.7635 23.5113C19.0866 20.693 18.4272 18.9573 18.3021 18.1033C18.2417 17.6912 18.3031 17.4741 18.3273 17.406C18.341 17.3676 18.3499 17.357 18.3412 17.3706C18.3369 17.3772 18.3285 17.3896 18.3143 17.4076C18.3072 17.4165 18.2987 17.4269 18.2885 17.4386C18.2834 17.4445 18.2779 17.4507 18.2719 17.4572C18.2689 17.4605 18.2658 17.4639 18.2626 17.4673C18.261 17.4691 18.2594 17.4708 18.2577 17.4726C18.2569 17.4734 18.2556 17.4748 18.2552 17.4752C18.2539 17.4766 18.2527 17.4779 17.2331 16.5094ZM19.7243 25.4482C22.5795 28.4544 24.7361 29.6362 26.3815 29.9034C27.2256 30.0404 27.909 29.9309 28.4265 29.7269C28.6795 29.6272 28.8797 29.51 29.0299 29.4035C29.1047 29.3503 29.1671 29.2998 29.2176 29.2558C29.2427 29.2336 29.265 29.213 29.2843 29.1943C29.2941 29.1851 29.3029 29.1761 29.3111 29.1678C29.3153 29.1637 29.3194 29.1596 29.3231 29.1556C29.325 29.1538 29.3269 29.1519 29.3286 29.15C29.3295 29.1491 29.3308 29.1476 29.3314 29.1472C29.3327 29.1457 29.334 29.1444 28.3144 28.1759C27.2948 27.2075 27.2961 27.2062 27.2972 27.2049C27.2978 27.2043 27.2989 27.203 27.2998 27.2021C27.3015 27.2004 27.3032 27.1987 27.3047 27.197C27.3081 27.1936 27.3113 27.1903 27.3145 27.1871C27.3206 27.1809 27.3266 27.1749 27.3323 27.1694C27.3437 27.1586 27.3538 27.1492 27.3628 27.1413C27.3808 27.1256 27.3941 27.1154 27.4028 27.1094C27.4202 27.0969 27.4185 27.1012 27.3945 27.1106C27.3583 27.1248 27.1881 27.185 26.8322 27.1273C26.0775 27.0046 24.4487 26.3384 21.7635 23.5113L19.7243 25.4482ZM16.8486 6.51862C14.9481 3.83066 11.1452 3.37717 8.84609 5.79769L10.8853 7.73462C11.8656 6.70252 13.5914 6.7836 14.5521 8.14232L16.8486 6.51862ZM34.608 37.0078C34.0847 37.5586 33.5374 37.8538 33.0053 37.9062L33.2816 40.7052C34.6823 40.5669 35.8159 39.8199 36.6473 38.9446L34.608 37.0078ZM18.7905 16.9117C20.6046 15.0017 20.733 12.0127 19.213 9.86267L16.9164 11.4863C17.708 12.6058 17.5866 14.0953 16.7512 14.9748L18.7905 16.9117ZM36.5801 29.9287C38.1193 30.8146 38.4205 32.9939 37.2715 34.2035L39.3107 36.1406C41.7576 33.5645 41.0449 29.2535 37.9832 27.4912L36.5801 29.9287ZM30.1879 28.2453C30.9105 27.4844 32.0366 27.3134 32.998 27.8668L34.401 25.4293C32.3413 24.2437 29.787 24.5836 28.1486 26.3084L30.1879 28.2453ZM21.492 34.7668C19.6476 33.6076 17.6844 32.0392 15.6739 29.9225L13.6347 31.8594C15.7985 34.1375 17.9422 35.8576 19.9956 37.148L21.492 34.7668ZM33.0053 37.9062C31.9806 38.0075 30.3589 38.0328 28.3373 37.6094L27.7609 40.3623C30.1018 40.8524 32.0145 40.8303 33.2816 40.7052L33.0053 37.9062Z" fill="#EAD5BA"/>
  </symbol>

  <symbol id="logo-linked-in" width="45" height="45" viewBox="0 0 45 45" xmlns="http://www.w3.org/2000/svg">
    <path d="M12.1875 15C13.7408 15 15 13.7408 15 12.1875C15 10.6342 13.7408 9.375 12.1875 9.375C10.6342 9.375 9.375 10.6342 9.375 12.1875C9.375 13.7408 10.6342 15 12.1875 15Z" fill="#EAD5BA"/>
    <path d="M9.375 18.75C9.375 17.7145 10.2145 16.875 11.25 16.875H13.125C14.1605 16.875 15 17.7145 15 18.75V33.75C15 34.7856 14.1605 35.625 13.125 35.625H11.25C10.2145 35.625 9.375 34.7856 9.375 33.75V18.75Z" fill="#EAD5BA"/>
    <path d="M20.625 35.625H22.5C23.5356 35.625 24.375 34.7856 24.375 33.75V25.3125C24.375 22.5 30 20.625 30 24.375V33.7507C30 34.7863 30.8394 35.625 31.875 35.625H33.75C34.7856 35.625 35.625 34.7856 35.625 33.75V22.5C35.625 18.75 32.8125 16.875 29.0625 16.875C25.3125 16.875 24.375 19.6875 24.375 19.6875V18.75C24.375 17.7145 23.5356 16.875 22.5 16.875H20.625C19.5894 16.875 18.75 17.7145 18.75 18.75V33.75C18.75 34.7856 19.5894 35.625 20.625 35.625Z" fill="#EAD5BA"/>
    <path fill-rule="evenodd" clip-rule="evenodd" d="M37.5 1.875C40.6067 1.875 43.125 4.39341 43.125 7.5V37.5C43.125 40.6067 40.6067 43.125 37.5 43.125H7.5C4.39341 43.125 1.875 40.6067 1.875 37.5V7.5C1.875 4.39341 4.39341 1.875 7.5 1.875H37.5ZM37.5 5.625C38.5356 5.625 39.375 6.46448 39.375 7.5V37.5C39.375 38.5356 38.5356 39.375 37.5 39.375H7.5C6.46448 39.375 5.625 38.5356 5.625 37.5V7.5C5.625 6.46448 6.46448 5.625 7.5 5.625H37.5Z" fill="#EAD5BA"/>
  </symbol>

  <symbol id="email" width="45" height="45" viewBox="0 0 45 45" xmlns="http://www.w3.org/2000/svg">
    <path d="M44.8838 9.86784C44.681 8.84602 44.2279 7.91096 43.5952 7.13849C43.4617 6.97018 43.3223 6.81944 43.1713 6.66871C42.0502 5.54213 40.4768 4.83936 38.7579 4.83936H6.24208C4.5232 4.83936 2.95541 5.54213 1.82909 6.66871C1.67836 6.81944 1.53896 6.97018 1.4052 7.13849C0.772119 7.91087 0.319043 8.84602 0.121816 9.86784C0.0407813 10.2622 0 10.6698 0 11.0818V33.9187C0 34.7948 0.185801 35.6369 0.517148 36.3974C0.824502 37.1234 1.27767 37.7803 1.829 38.3311C1.96875 38.4705 2.10753 38.5987 2.25896 38.7261C3.33879 39.6204 4.73265 40.1605 6.24208 40.1605H38.7579C40.2679 40.1605 41.6678 39.6204 42.7414 38.7205C42.8924 38.5987 43.0319 38.4705 43.1713 38.3311C43.7223 37.7803 44.1754 37.1234 44.4891 36.3974V36.3918C44.8204 35.6313 44.9999 34.7948 44.9999 33.9188V11.0818C45 10.6698 44.9598 10.2622 44.8838 9.86784ZM4.08771 8.92706C4.64537 8.37001 5.39429 8.03277 6.24208 8.03277H38.7579C39.6057 8.03277 40.3612 8.37001 40.9123 8.92706C41.0109 9.02629 41.1038 9.13686 41.1858 9.24672L24.1432 24.0998C23.6732 24.5117 23.0926 24.7152 22.5 24.7152C21.9134 24.7152 21.3332 24.5117 20.8569 24.0998L3.82078 9.24039C3.89619 9.13053 3.98909 9.02629 4.08771 8.92706ZM3.19342 33.9187V12.545L15.5266 23.3041L3.19966 34.0518C3.19342 34.011 3.19342 33.9652 3.19342 33.9187ZM38.7579 36.9664H6.24208C5.69004 36.9664 5.17351 36.8213 4.73265 36.5664L17.7385 25.2321L18.9527 26.2884C19.9688 27.1713 21.2404 27.6185 22.5 27.6185C23.7662 27.6185 25.0376 27.1713 26.0536 26.2884L27.2672 25.2321L40.268 36.5664C39.8265 36.8213 39.31 36.9664 38.7579 36.9664ZM41.8066 33.9187C41.8066 33.9652 41.8066 34.011 41.8006 34.0518L29.4738 23.3104L41.8066 12.5507V33.9187Z" fill="#EAD5BA"/>
  </symbol>

  <symbol id="logo-github" width="45" height="45" viewBox="0 0 45 45" xmlns="http://www.w3.org/2000/svg">
    <g clip-path="url(#clip0_141_128)">
    <path fill-rule="evenodd" clip-rule="evenodd" d="M22.5 2.89772C11.1465 2.89772 1.95653 12.0406 1.95653 23.3019C1.95653 31.5701 6.91144 38.6865 14.0443 41.8881C14.79 42.2227 15.5202 42.0904 16.0898 41.6634C16.6736 41.2258 17.0873 40.4724 17.0873 39.5865V38.5174L14.5428 38.1727C14.5243 38.1703 14.5059 38.1673 14.4876 38.1637C13.0831 37.8906 12.1369 37.3974 11.4434 36.6866C10.8594 36.0881 10.5036 35.3711 10.202 34.7634C10.1663 34.6916 10.1314 34.6213 10.097 34.5529C9.71522 33.7942 9.44312 33.2557 9.18345 32.8446C8.93102 32.445 8.73351 32.2382 8.53896 32.1092C8.04291 31.7807 7.56808 31.2246 7.56808 30.528C7.56808 30.1459 7.72219 29.7553 8.05618 29.4787C8.3709 29.2181 8.74944 29.1366 9.07847 29.1366C9.4956 29.1366 9.88697 29.2642 10.2137 29.4109C10.5476 29.5607 10.8782 29.7602 11.1878 29.9664C11.9413 30.4687 12.6843 31.0641 13.3126 31.7955C13.9668 32.5571 14.4291 33.042 15.1283 33.1412C15.7005 33.2224 16.2858 33.2248 16.7421 33.204C16.7621 33.0956 16.7866 32.9809 16.8167 32.8618C16.8706 32.6481 16.9462 32.4054 17.0534 32.1544C16.5357 32.0329 15.9742 31.8744 15.4096 31.6742C14.182 31.2388 12.8165 30.5634 11.8975 29.5361C10.888 28.4077 10.2633 27.4022 9.91436 26.2234C9.57474 25.0761 9.51923 23.8337 9.51923 22.3022C9.51923 19.9605 10.534 17.9852 11.2942 16.9377C11.0443 16.1401 10.7829 15.1045 10.6671 14.122C10.596 13.5186 10.5727 12.88 10.6687 12.3082C10.7612 11.7577 10.9973 11.0832 11.6135 10.675C12.2088 10.2807 12.9047 10.2968 13.4486 10.3994C14.0142 10.5061 14.6009 10.7404 15.1405 11.0074C16.0191 11.4422 16.8934 12.0248 17.5484 12.5167C18.6777 12.185 20.6741 11.7586 22.4786 11.7189C22.4929 11.7186 22.5071 11.7186 22.5214 11.7189C24.3274 11.7586 26.2356 12.185 27.3354 12.5151C27.9902 12.0235 28.8636 11.4418 29.7413 11.0074C30.2809 10.7404 30.8676 10.5061 31.4333 10.3994C31.977 10.2968 32.673 10.2807 33.2683 10.675C33.8844 11.0832 34.1205 11.7577 34.2129 12.3082C34.3089 12.88 34.2857 13.5186 34.2146 14.122C34.0988 15.1045 33.8374 16.1401 33.5876 16.9377C34.3478 17.9852 35.3625 19.9605 35.3625 22.3022C35.3625 23.8337 35.307 25.0761 34.9674 26.2234C34.6185 27.4022 33.9938 28.4077 32.9842 29.5361C32.0653 30.5634 30.6998 31.2388 29.4722 31.6742C28.779 31.92 28.0905 32.1028 27.4821 32.2316C27.7125 32.9287 27.7944 33.4931 27.7944 33.8169V39.6103C27.7944 40.4932 28.2056 41.2453 28.7873 41.6839C29.355 42.1121 30.0836 42.2473 30.8295 41.9188C38.0276 38.7465 43.0434 31.6131 43.0434 23.3019C43.0434 12.0406 33.8535 2.89772 22.5 2.89772ZM17.7679 35.0818C17.2818 35.1514 17.7651 35.0824 17.7651 35.0824L17.76 35.0829L17.7443 35.0852L17.6909 35.0919C17.6459 35.0976 17.5824 35.1051 17.503 35.1131C17.3444 35.1292 17.1209 35.1484 16.8535 35.1611C16.3242 35.1862 15.5982 35.1876 14.8538 35.082C13.3697 34.8712 12.4696 33.8209 11.8853 33.1391C11.8664 33.117 11.8479 33.0954 11.8296 33.0741C11.642 32.8556 11.4366 32.6484 11.2163 32.4506C11.41 32.8078 11.6095 33.2044 11.8252 33.633L11.844 33.6703C11.8775 33.7369 11.9097 33.8012 11.9409 33.8634C12.2681 34.5167 12.4855 34.9506 12.8424 35.3164C13.1902 35.6728 13.735 36.0167 14.8336 36.2342L18.1966 36.6896C18.6819 36.7554 19.0438 37.1704 19.0438 37.6609V39.5865C19.0438 41.0874 18.3415 42.4236 17.262 43.2328C16.1683 44.0527 14.6879 44.325 13.2444 43.677C5.44118 40.1747 0 32.3786 0 23.3019C0 10.9427 10.0813 0.9375 22.5 0.9375C34.9187 0.9375 45 10.9427 45 23.3019C45 32.4289 39.4897 40.2437 31.6172 43.713C30.1742 44.349 28.6993 44.0709 27.6107 43.2501C26.5359 42.4395 25.8379 41.1064 25.8379 39.6103V33.8169C25.8379 33.6857 25.7462 32.9276 25.2332 31.9082C25.0888 31.6213 25.0939 31.2819 25.2467 30.9996C25.3997 30.7174 25.6809 30.528 25.9995 30.4927C26.6411 30.4219 27.7256 30.2141 28.8193 29.8264C29.9331 29.4313 30.9326 28.8926 31.5272 28.2279C32.4098 27.2413 32.8492 26.4846 33.0917 25.6659C33.3433 24.8158 33.4059 23.8258 33.4059 22.3022C33.4059 20.1634 32.2817 18.3656 31.7638 17.7866C31.5251 17.5199 31.4507 17.144 31.5697 16.8062C31.8304 16.0664 32.1506 14.918 32.2716 13.8921C32.3325 13.3753 32.3359 12.9447 32.2836 12.6334C32.2485 12.4239 32.2009 12.3373 32.1827 12.31C32.1489 12.3008 32.0381 12.28 31.7953 12.3258C31.476 12.386 31.0693 12.5365 30.6077 12.765C29.6897 13.2192 28.7336 13.891 28.1394 14.3707C27.8736 14.5854 27.5151 14.6456 27.1939 14.5295C26.4396 14.257 24.3799 13.7242 22.5 13.6792C20.6117 13.7244 18.4339 14.26 17.6879 14.5295C17.3667 14.6456 17.0082 14.5854 16.7423 14.3707C16.1481 13.891 15.192 13.2192 14.274 12.765C13.8124 12.5365 13.4058 12.386 13.0865 12.3258C12.8436 12.28 12.7328 12.3008 12.6992 12.31C12.6809 12.3373 12.6333 12.4239 12.5981 12.6334C12.5459 12.9447 12.5492 13.3753 12.6101 13.8921C12.7311 14.918 13.0514 16.0664 13.312 16.8062C13.431 17.144 13.3566 17.5199 13.118 17.7866C12.6 18.3656 11.4757 20.1634 11.4757 22.3022C11.4757 23.8258 11.5385 24.8158 11.7901 25.6659C12.0324 26.4846 12.472 27.2413 13.3545 28.2279C13.9491 28.8926 14.9487 29.4313 16.0625 29.8264C17.156 30.2141 18.2407 30.4219 18.8822 30.4927C19.2855 30.5372 19.6194 30.8265 19.7216 31.2197C19.824 31.6129 19.6734 32.0287 19.3434 32.2648C19.0333 32.4864 18.8293 32.8834 18.7136 33.3422C18.6589 33.5587 18.6321 33.7581 18.6193 33.9024C18.6129 33.9739 18.6102 34.0297 18.609 34.0648L18.6082 34.1004C18.6137 34.5922 18.254 35.0124 17.7679 35.0818Z" fill="#EAD5BA"/>
    </g>
    <defs>
    <clipPath id="clip0_141_128">
    <rect width="45" height="45" fill="white"/>
    </clipPath>
    </defs>
  </symbol>
</svg>
