<svg width="0" height="0" class="hidden">
  <symbol id="simple-icon" width="111" height="50" viewBox="0 0 111 50" fill="none">
    <path d="M30.8113 10.5468V13.594M30.8113 35.5535V22.9359M30.8113 35.5535C29.0213 34.521 27.489 33.2501 26.0844 31.8355M30.8113 35.5535V47.5M5.96832 13.594C6.98864 13.9822 7.94456 14.4094 8.84416 14.8697M30.8113 22.9359V13.594M30.8113 22.9359C32.3515 22.5789 37.7164 20.5307 39 19.6585M58.2013 6.7987C57.2739 7.15365 56.3994 7.5409 55.5714 7.95408M30.8113 13.594L27.0438 10.5468M26.0844 31.8355C22.9675 32.8414 16.5292 34.152 15.711 31.3468M26.0844 31.8355C25.5544 31.3017 25.0426 30.7475 24.542 30.1779M24.542 30.1779C23.7412 27.1585 22.4318 20.8273 23.6007 19.6585M24.542 30.1779C22.2675 27.5901 20.224 24.685 17.7565 21.9397M17.7565 21.9397C18.1948 18.762 18.6331 12.2205 16.8799 11.4766M17.7565 21.9397C15.8571 23.2734 11.6786 25.4442 10.1591 23.4572M17.7565 21.9397C15.796 19.7586 13.5679 17.6783 10.7435 15.9383M10.7435 15.9383C11.2305 13.8179 11.7955 9.43119 10.1591 8.84678M10.7435 15.9383C10.1388 15.5657 9.50675 15.2087 8.84416 14.8697M8.84416 14.8697L3 17.7591M39 19.6585C41.8247 20.5092 48.6461 23.0812 51.3344 21.0393M39 19.6585C38.7078 16.2752 39.0032 10.6851 40.5227 9.86688M39 19.6585C41.38 18.0413 43.9916 17.0918 46.4755 14.6883M46.4755 14.6883C49.0691 15.224 54.3734 15.974 54.8409 14.6883M46.4755 14.6883C46.8524 14.3236 47.2378 13.9572 47.6341 13.5913M47.6341 13.5913C47.3091 11.0349 46.9513 5.68831 48.1201 4.75325M47.6341 13.5913C49.3022 12.0513 51.1618 10.5211 53.3799 9.1674M53.3799 9.1674L60.3929 10.8896M53.3799 9.1674C54.0736 8.74399 54.8024 8.33785 55.5714 7.95408M55.5714 7.95408V3" stroke="#A36B21" stroke-width="5" stroke-linecap="round" stroke-linejoin="round"/>
    <path d="M58.5 31.2236C58.5 32.8844 58.5 38.365 58.5 38.6972C58.5 49.4923 71.3337 49.4923 71.3337 38.6972C71.3337 38.365 71.3337 32.8844 71.3337 31.2236M77.7197 46.5859V31.2236L88.5 46.5859V31.2236M107.834 31.2237H101.417H95V47.0011H107.834V38.6972H101.674M36.7998 31.2236H44.5M52.2002 31.2236H44.5M44.5 31.2236V47.0011" stroke="#A36B21" stroke-width="5" stroke-linecap="round" stroke-linejoin="round"/>
  </symbol>

  <symbol id="noname-icon" width="310" height="310" viewBox="0 0 310 310" fill="none" xmlns="http://www.w3.org/2000/svg">
    <path d="M16.4327 241.726C9.13449 228.833 5 213.975 5 197.156H100.893M16.4327 241.726C16.9075 233.06 34.4643 212.013 100.893 197.156M16.4327 241.726C25.4054 257.578 39.1601 270.46 55.8929 280.362M100.893 197.156H151.92M55.8929 280.362C53.3929 267.66 79.3036 233.237 202.946 197.156M55.8929 280.362C76.0226 292.274 100.462 299.875 126.071 303.146M202.946 197.156H305C305 207.653 303.413 217.38 300.47 226.339M202.946 197.156H151.92M126.071 303.146C198.626 312.416 280.566 286.939 300.47 226.339M126.071 303.146C149.123 280.02 216.275 232.282 300.47 226.339M151.92 197.156V136.669M151.92 5.00006V31.0805M151.92 31.0805L131 5.00006M151.92 31.0805V83.8746M151.92 136.669C144.797 134.271 135.594 130.509 126.071 125.596M151.92 136.669V83.8746M76.25 71.4056C77.0401 91.2306 96.1128 108.197 116.429 120.26M76.25 71.4056C76.1087 67.8594 75.618 64.502 74.8328 61.3243M76.25 71.4056C58.2143 75.1198 22.25 78.3033 22.6786 61.3243M16.4327 10.3873C18.8226 11.3855 22.7568 12.8706 27.5 14.9637M116.429 120.26C110.357 103.975 100.036 69.3894 107.321 61.3243M116.429 120.26C119.634 122.164 122.871 123.945 126.071 125.596M126.071 125.596C100.893 118.348 49.1429 107.133 43.5714 120.26M74.8328 61.3243C79.7062 45.9371 87.9909 14.2076 82.1429 10.3873M74.8328 61.3243C70.4386 43.5411 56.8192 31.3867 43.5714 23.2801M43.5714 23.2801C44.8214 16.6832 47.5 6.5 41.5 5M43.5714 23.2801C37.8943 19.8061 32.2854 17.0754 27.5 14.9637M27.5 14.9637C21.9643 15.1357 9.71429 19.2597 5 25.5001M151.92 83.8746C154.531 83.3519 157.95 82.4495 161.964 81.1211M300 15.864C297 12 282.765 14.5108 275.187 15.864M161.964 81.1211C163.304 66.1383 169.679 33.5943 184.464 23.2801M161.964 81.1211C163.489 80.6164 165.1 80.0502 166.786 79.4199M166.786 79.4199C177.143 87.8025 201.714 102.498 217.143 94.2212M166.786 79.4199C179.009 74.849 195.136 66.9099 210.714 54.6348M210.714 54.6348C209.286 39.7087 209.857 9.00774 223.571 5.61194M210.714 54.6348C212.872 52.9349 215.018 51.1518 217.143 49.283M217.143 49.283C219.313 47.3738 221.46 45.375 223.571 43.2841C236.09 30.8856 249.575 23.5451 261.607 19.4081M217.143 49.283C232.857 57.3105 267.179 70.9574 278.75 61.3243M261.607 19.4081L305 42.5M261.607 19.4081C266.417 17.7542 270.996 16.6123 275.187 15.864M275.187 15.864L278 5" stroke="#A36B21" stroke-width="10" stroke-linecap="round" stroke-linejoin="round"/>
  </symbol>
</svg>
