<svg width="0" height="0" class="hidden">
  <symbol id="simple-icon" width="111" height="50" viewBox="0 0 111 50" fill="none">
    <path d="M30.8113 10.5468V13.594M30.8113 35.5535V22.9359M30.8113 35.5535C29.0213 34.521 27.489 33.2501 26.0844 31.8355M30.8113 35.5535V47.5M5.96832 13.594C6.98864 13.9822 7.94456 14.4094 8.84416 14.8697M30.8113 22.9359V13.594M30.8113 22.9359C32.3515 22.5789 37.7164 20.5307 39 19.6585M58.2013 6.7987C57.2739 7.15365 56.3994 7.5409 55.5714 7.95408M30.8113 13.594L27.0438 10.5468M26.0844 31.8355C22.9675 32.8414 16.5292 34.152 15.711 31.3468M26.0844 31.8355C25.5544 31.3017 25.0426 30.7475 24.542 30.1779M24.542 30.1779C23.7412 27.1585 22.4318 20.8273 23.6007 19.6585M24.542 30.1779C22.2675 27.5901 20.224 24.685 17.7565 21.9397M17.7565 21.9397C18.1948 18.762 18.6331 12.2205 16.8799 11.4766M17.7565 21.9397C15.8571 23.2734 11.6786 25.4442 10.1591 23.4572M17.7565 21.9397C15.796 19.7586 13.5679 17.6783 10.7435 15.9383M10.7435 15.9383C11.2305 13.8179 11.7955 9.43119 10.1591 8.84678M10.7435 15.9383C10.1388 15.5657 9.50675 15.2087 8.84416 14.8697M8.84416 14.8697L3 17.7591M39 19.6585C41.8247 20.5092 48.6461 23.0812 51.3344 21.0393M39 19.6585C38.7078 16.2752 39.0032 10.6851 40.5227 9.86688M39 19.6585C41.38 18.0413 43.9916 17.0918 46.4755 14.6883M46.4755 14.6883C49.0691 15.224 54.3734 15.974 54.8409 14.6883M46.4755 14.6883C46.8524 14.3236 47.2378 13.9572 47.6341 13.5913M47.6341 13.5913C47.3091 11.0349 46.9513 5.68831 48.1201 4.75325M47.6341 13.5913C49.3022 12.0513 51.1618 10.5211 53.3799 9.1674M53.3799 9.1674L60.3929 10.8896M53.3799 9.1674C54.0736 8.74399 54.8024 8.33785 55.5714 7.95408M55.5714 7.95408V3" stroke="#A36B21" stroke-width="5" stroke-linecap="round" stroke-linejoin="round"/>
    <path d="M58.5 31.2236C58.5 32.8844 58.5 38.365 58.5 38.6972C58.5 49.4923 71.3337 49.4923 71.3337 38.6972C71.3337 38.365 71.3337 32.8844 71.3337 31.2236M77.7197 46.5859V31.2236L88.5 46.5859V31.2236M107.834 31.2237H101.417H95V47.0011H107.834V38.6972H101.674M36.7998 31.2236H44.5M52.2002 31.2236H44.5M44.5 31.2236V47.0011" stroke="#A36B21" stroke-width="5" stroke-linecap="round" stroke-linejoin="round"/>
  </symbol>
</svg>
