<svg width="45" height="45" viewBox="0 0 45 45" fill="none" xmlns="http://www.w3.org/2000/svg">
<path d="M12.1875 15C13.7408 15 15 13.7408 15 12.1875C15 10.6342 13.7408 9.375 12.1875 9.375C10.6342 9.375 9.375 10.6342 9.375 12.1875C9.375 13.7408 10.6342 15 12.1875 15Z" fill="#EAD5BA"/>
<path d="M9.375 18.75C9.375 17.7145 10.2145 16.875 11.25 16.875H13.125C14.1605 16.875 15 17.7145 15 18.75V33.75C15 34.7856 14.1605 35.625 13.125 35.625H11.25C10.2145 35.625 9.375 34.7856 9.375 33.75V18.75Z" fill="#EAD5BA"/>
<path d="M20.625 35.625H22.5C23.5356 35.625 24.375 34.7856 24.375 33.75V25.3125C24.375 22.5 30 20.625 30 24.375V33.7507C30 34.7863 30.8394 35.625 31.875 35.625H33.75C34.7856 35.625 35.625 34.7856 35.625 33.75V22.5C35.625 18.75 32.8125 16.875 29.0625 16.875C25.3125 16.875 24.375 19.6875 24.375 19.6875V18.75C24.375 17.7145 23.5356 16.875 22.5 16.875H20.625C19.5894 16.875 18.75 17.7145 18.75 18.75V33.75C18.75 34.7856 19.5894 35.625 20.625 35.625Z" fill="#EAD5BA"/>
<path fill-rule="evenodd" clip-rule="evenodd" d="M37.5 1.875C40.6067 1.875 43.125 4.39341 43.125 7.5V37.5C43.125 40.6067 40.6067 43.125 37.5 43.125H7.5C4.39341 43.125 1.875 40.6067 1.875 37.5V7.5C1.875 4.39341 4.39341 1.875 7.5 1.875H37.5ZM37.5 5.625C38.5356 5.625 39.375 6.46448 39.375 7.5V37.5C39.375 38.5356 38.5356 39.375 37.5 39.375H7.5C6.46448 39.375 5.625 38.5356 5.625 37.5V7.5C5.625 6.46448 6.46448 5.625 7.5 5.625H37.5Z" fill="#EAD5BA"/>
</svg>
