<svg width="45" height="45" viewBox="0 0 45 45" xmlns="http://www.w3.org/2000/svg">
<path d="M7.03512 12.9857C6.99349 12.2102 6.33105 11.6152 5.55552 11.6568C4.77998 11.6985 4.18504 12.3609 4.22667 13.1364L7.03512 12.9857ZM8.84609 5.79769C8.31122 6.36081 8.33412 7.25089 8.89723 7.78577C9.46035 8.32063 10.3504 8.29774 10.8853 7.73462L8.84609 5.79769ZM19.9956 37.148C20.6531 37.5613 21.5213 37.3633 21.9345 36.7057C22.3478 36.0481 22.1496 35.18 21.492 34.7668L19.9956 37.148ZM28.3373 37.6094C27.5771 37.4503 26.8318 37.9376 26.6726 38.6977C26.5135 39.4578 27.0006 40.2031 27.7609 40.3623L28.3373 37.6094ZM29.334 29.1444L30.1879 28.2453L28.1486 26.3084L27.2948 27.2075L29.334 29.1444ZM32.998 27.8668L36.5801 29.9287L37.9832 27.4912L34.401 25.4293L32.998 27.8668ZM37.2715 34.2035L34.608 37.0078L36.6473 38.9446L39.3107 36.1406L37.2715 34.2035ZM15.6739 29.9225C8.40615 22.2708 7.18707 15.8166 7.03512 12.9857L4.22667 13.1364C4.41276 16.6037 5.88497 23.7005 13.6347 31.8594L15.6739 29.9225ZM18.2527 17.4779L18.7905 16.9117L16.7512 14.9748L16.2134 15.541L18.2527 17.4779ZM19.213 9.86267L16.8486 6.51862L14.5521 8.14232L16.9164 11.4863L19.213 9.86267ZM17.2331 16.5094C16.2134 15.541 16.2121 15.5424 16.2108 15.5437C16.2104 15.5442 16.2091 15.5456 16.2082 15.5465C16.2064 15.5485 16.2046 15.5504 16.2027 15.5524C16.199 15.5563 16.1952 15.5605 16.1913 15.5648C16.1834 15.5735 16.1751 15.5828 16.1663 15.5929C16.1488 15.6131 16.1295 15.6361 16.1089 15.6622C16.0677 15.7143 16.0211 15.7783 15.9721 15.8547C15.8741 16.008 15.7677 16.2099 15.6776 16.4631C15.4944 16.9779 15.3946 17.6596 15.5193 18.511C15.7644 20.1838 16.8604 22.4332 19.7243 25.4482L21.7635 23.5113C19.0866 20.693 18.4272 18.9573 18.3021 18.1033C18.2417 17.6912 18.3031 17.4741 18.3273 17.406C18.341 17.3676 18.3499 17.357 18.3412 17.3706C18.3369 17.3772 18.3285 17.3896 18.3143 17.4076C18.3072 17.4165 18.2987 17.4269 18.2885 17.4386C18.2834 17.4445 18.2779 17.4507 18.2719 17.4572C18.2689 17.4605 18.2658 17.4639 18.2626 17.4673C18.261 17.4691 18.2594 17.4708 18.2577 17.4726C18.2569 17.4734 18.2556 17.4748 18.2552 17.4752C18.2539 17.4766 18.2527 17.4779 17.2331 16.5094ZM19.7243 25.4482C22.5795 28.4544 24.7361 29.6362 26.3815 29.9034C27.2256 30.0404 27.909 29.9309 28.4265 29.7269C28.6795 29.6272 28.8797 29.51 29.0299 29.4035C29.1047 29.3503 29.1671 29.2998 29.2176 29.2558C29.2427 29.2336 29.265 29.213 29.2843 29.1943C29.2941 29.1851 29.3029 29.1761 29.3111 29.1678C29.3153 29.1637 29.3194 29.1596 29.3231 29.1556C29.325 29.1538 29.3269 29.1519 29.3286 29.15C29.3295 29.1491 29.3308 29.1476 29.3314 29.1472C29.3327 29.1457 29.334 29.1444 28.3144 28.1759C27.2948 27.2075 27.2961 27.2062 27.2972 27.2049C27.2978 27.2043 27.2989 27.203 27.2998 27.2021C27.3015 27.2004 27.3032 27.1987 27.3047 27.197C27.3081 27.1936 27.3113 27.1903 27.3145 27.1871C27.3206 27.1809 27.3266 27.1749 27.3323 27.1694C27.3437 27.1586 27.3538 27.1492 27.3628 27.1413C27.3808 27.1256 27.3941 27.1154 27.4028 27.1094C27.4202 27.0969 27.4185 27.1012 27.3945 27.1106C27.3583 27.1248 27.1881 27.185 26.8322 27.1273C26.0775 27.0046 24.4487 26.3384 21.7635 23.5113L19.7243 25.4482ZM16.8486 6.51862C14.9481 3.83066 11.1452 3.37717 8.84609 5.79769L10.8853 7.73462C11.8656 6.70252 13.5914 6.7836 14.5521 8.14232L16.8486 6.51862ZM34.608 37.0078C34.0847 37.5586 33.5374 37.8538 33.0053 37.9062L33.2816 40.7052C34.6823 40.5669 35.8159 39.8199 36.6473 38.9446L34.608 37.0078ZM18.7905 16.9117C20.6046 15.0017 20.733 12.0127 19.213 9.86267L16.9164 11.4863C17.708 12.6058 17.5866 14.0953 16.7512 14.9748L18.7905 16.9117ZM36.5801 29.9287C38.1193 30.8146 38.4205 32.9939 37.2715 34.2035L39.3107 36.1406C41.7576 33.5645 41.0449 29.2535 37.9832 27.4912L36.5801 29.9287ZM30.1879 28.2453C30.9105 27.4844 32.0366 27.3134 32.998 27.8668L34.401 25.4293C32.3413 24.2437 29.787 24.5836 28.1486 26.3084L30.1879 28.2453ZM21.492 34.7668C19.6476 33.6076 17.6844 32.0392 15.6739 29.9225L13.6347 31.8594C15.7985 34.1375 17.9422 35.8576 19.9956 37.148L21.492 34.7668ZM33.0053 37.9062C31.9806 38.0075 30.3589 38.0328 28.3373 37.6094L27.7609 40.3623C30.1018 40.8524 32.0145 40.8303 33.2816 40.7052L33.0053 37.9062Z" fill="#EAD5BA"/>
</svg>
