<svg width="45" height="45" viewBox="0 0 45 45" xmlns="http://www.w3.org/2000/svg">
<g clip-path="url(#clip0_140_41)">
<path d="M22.4138 44.9139C10 44.9139 0 42.1553 0 38.8794C0 36.638 4.48276 34.7415 11.2069 33.707L13.9655 36.638C7.75862 36.9828 4.48276 38.0173 4.48276 38.8794C4.48276 40.2587 11.8966 41.4656 22.4138 41.4656C32.931 41.4656 40.5172 40.2587 40.5172 38.8794C40.5172 37.8449 37.2414 36.9828 31.0345 36.638L33.7931 33.707C40.5172 34.7415 45 36.638 45 38.8794C44.8276 42.1553 34.8276 44.9139 22.4138 44.9139ZM29.3103 15.6035C29.3103 16.9675 28.9059 18.3009 28.1481 19.435C27.3903 20.5692 26.3132 21.4531 25.053 21.9751C23.7928 22.4971 22.4061 22.6337 21.0683 22.3676C19.7305 22.1015 18.5017 21.4446 17.5372 20.4801C16.5727 19.5156 15.9159 18.2868 15.6498 16.949C15.3837 15.6112 15.5202 14.2245 16.0422 12.9643C16.5642 11.7042 17.4481 10.6271 18.5823 9.86925C19.7164 9.11145 21.0498 8.70698 22.4138 8.70698C24.2412 8.71243 25.9922 9.44079 27.2844 10.733C28.5765 12.0251 29.3049 13.7761 29.3103 15.6035ZM18.9655 15.6035C18.9655 16.2855 19.1678 16.9522 19.5467 17.5193C19.9256 18.0863 20.4641 18.5283 21.0942 18.7893C21.7243 19.0503 22.4176 19.1186 23.0865 18.9855C23.7554 18.8525 24.3698 18.5241 24.8521 18.0418C25.3343 17.5596 25.6628 16.9452 25.7958 16.2763C25.9289 15.6074 25.8606 14.914 25.5996 14.2839C25.3386 13.6538 24.8966 13.1153 24.3295 12.7364C23.7625 12.3575 23.0958 12.1553 22.4138 12.1553C21.5001 12.158 20.6246 12.5222 19.9785 13.1682C19.3324 13.8143 18.9682 14.6898 18.9655 15.6035ZM24.1379 36.2932L22.4138 38.0173L20.6897 36.2932C20.1724 35.6035 9.31035 26.2932 7.24138 18.1897C7.06897 17.6725 6.72414 15.7759 8.62069 15.6035C10.1724 15.4311 10.5172 17.3277 10.5172 17.3277C11.8965 23.3621 19.4828 29.2242 22.4138 32.8449C25.5172 28.8794 34.4828 22.3277 34.4828 15.6035C34.4828 7.84491 30 3.53456 22.4138 3.53456C16.7241 3.53456 12.7586 5.94836 11.2069 10.4311C11.2069 10.4311 10.5172 12.5001 9.31035 12.1553C7.93104 11.8104 7.75862 10.7759 8.27586 9.22422C9.73731 5.99358 12.2611 3.3609 15.4272 1.7644C18.5933 0.167898 22.2106 -0.296116 25.6772 0.44959C29.1437 1.1953 32.2503 3.10574 34.4798 5.86292C36.7093 8.62011 37.9273 12.0577 37.931 15.6035C37.931 24.2242 24.8276 35.6035 24.1379 36.2932Z" fill="#EAD5BA"/>
</g>
<defs>
<clipPath id="clip0_140_41">
<rect width="45" height="45" fill="white"/>
</clipPath>
</defs>
</svg>
