<svg width="45" height="45" viewBox="0 0 45 45" fill="none" xmlns="http://www.w3.org/2000/svg">
<path fill-rule="evenodd" clip-rule="evenodd" d="M5.625 12.1875C5.625 8.56313 8.56313 5.625 12.1875 5.625C13.9905 5.625 15.6206 6.34961 16.8086 7.52788L17.5731 8.28615L18.6133 8.00796C19.8508 7.677 21.1534 7.5 22.5 7.5C30.7843 7.5 37.5 14.2157 37.5 22.5C37.5 23.8466 37.323 25.1492 36.9921 26.3867L36.7138 27.4269L37.4721 28.1914C38.6503 29.3794 39.375 31.0095 39.375 32.8125C39.375 36.4369 36.4369 39.375 32.8125 39.375C31.0095 39.375 29.3794 38.6503 28.1914 37.4721L27.4269 36.7138L26.3867 36.9921C25.1492 37.323 23.8466 37.5 22.5 37.5C14.2157 37.5 7.5 30.7843 7.5 22.5C7.5 21.1534 7.677 19.8508 8.00796 18.6133L8.28615 17.5731L7.52788 16.8086C6.34961 15.6206 5.625 13.9905 5.625 12.1875ZM12.1875 1.875C6.49206 1.875 1.875 6.49206 1.875 12.1875C1.875 14.6313 2.72687 16.8788 4.14701 18.6453C3.88663 19.8908 3.75 21.1804 3.75 22.5C3.75 32.8552 12.1447 41.25 22.5 41.25C23.8196 41.25 25.1093 41.1133 26.3546 40.8531C28.1213 42.2732 30.3688 43.125 32.8125 43.125C38.508 43.125 43.125 38.508 43.125 32.8125C43.125 30.3688 42.2732 28.1213 40.8531 26.3546C41.1133 25.1093 41.25 23.8196 41.25 22.5C41.25 12.1447 32.8552 3.75 22.5 3.75C21.1804 3.75 19.8908 3.88663 18.6453 4.14701C16.8788 2.72687 14.6313 1.875 12.1875 1.875ZM19.9538 17.4942C20.2024 17.0198 21.0534 16.4062 22.3734 16.4062C24.6354 16.4062 25.8833 17.2915 26.457 17.7294C27.2801 18.3576 28.4569 18.1995 29.085 17.3763C29.7133 16.5531 29.5553 15.3765 28.7319 14.7483C27.8141 14.0478 25.7764 12.6562 22.3734 12.6562C19.9941 12.6562 17.6719 13.77 16.5454 15.9191C15.7313 17.4723 15.8631 19.1672 16.6901 20.5429C17.4932 21.8786 18.8871 22.8332 20.5294 23.2755L23.4424 24.0602C24.5644 24.3622 26.2686 25.4049 25.6549 26.8097C25.2849 27.6568 23.9736 28.5938 22.0421 28.5938C20.3726 28.5938 18.8994 28.3052 17.5438 27.2706C16.7206 26.6424 15.544 26.8005 14.9158 27.6236C14.2876 28.4469 14.4457 29.6235 15.2689 30.2516C17.0852 31.6378 18.9759 32.3438 21.6276 32.3438C24.5884 32.3438 27.8192 31.2232 29.0914 28.3108C29.8403 26.5965 29.5933 24.7995 28.6577 23.3565C27.2181 21.1359 24.7382 20.4943 22.3371 19.8729C22.0581 19.8007 21.7798 19.7288 21.5046 19.6545C20.5183 19.3888 19.3652 18.6171 19.9538 17.4942Z" fill="#EAD5BA"/>
</svg>
